solid cone
  facet normal 8.843723e-001 1.989136e-001 4.222784e-001
    outer loop
      vertex   -3.775294e+000 1.254524e-001 0.000000e+000
      vertex   -1.342494e+001 -2.498337e+000 2.144507e+001
      vertex   -3.581164e+000 -7.376520e-001 0.000000e+000
    endloop
  endfacet
  facet normal 8.633316e-001 2.762961e-001 4.222784e-001
    outer loop
      vertex   -3.775294e+000 1.254524e-001 0.000000e+000
      vertex   -4.044945e+000 9.680221e-001 0.000000e+000
      vertex   -1.342494e+001 -2.498337e+000 2.144507e+001
    endloop
  endfacet
  facet normal 8.355341e-001 3.515163e-001 4.222784e-001
    outer loop
      vertex   -4.044945e+000 9.680221e-001 0.000000e+000
      vertex   -4.388008e+000 1.783463e+000 0.000000e+000
      vertex   -1.342494e+001 -2.498337e+000 2.144507e+001
    endloop
  endfacet
  facet normal 7.140306e-001 5.584274e-001 4.222784e-001
    outer loop
      vertex   -5.828072e+000 4.004551e+000 0.000000e+000
      vertex   -1.342494e+001 -2.498337e+000 2.144507e+001
      vertex   -5.283074e+000 3.307692e+000 0.000000e+000
    endloop
  endfacet
  facet normal 6.618826e-001 6.193483e-001 4.222784e-001
    outer loop
      vertex   -5.828072e+000 4.004551e+000 0.000000e+000
      vertex   -6.432526e+000 4.650516e+000 0.000000e+000
      vertex   -1.342494e+001 -2.498337e+000 2.144507e+001
    endloop
  endfacet
  facet normal 6.045545e-001 6.754219e-001 4.222784e-001
    outer loop
      vertex   -6.432526e+000 4.650516e+000 0.000000e+000
      vertex   -7.091705e+000 5.240532e+000 0.000000e+000
      vertex   -1.342494e+001 -2.498337e+000 2.144507e+001
    endloop
  endfacet
  facet normal 4.061574e-001 8.103809e-001 4.222784e-001
    outer loop
      vertex   -8.553214e+000 6.234719e+000 0.000000e+000
      vertex   -9.344107e+000 6.631108e+000 0.000000e+000
      vertex   -1.342494e+001 -2.498337e+000 2.144507e+001
    endloop
  endfacet
  facet normal 1.793008e-001 8.885562e-001 4.222784e-001
    outer loop
      vertex   -1.101527e+001 7.206994e+000 0.000000e+000
      vertex   -1.188245e+001 7.381983e+000 0.000000e+000
      vertex   -1.342494e+001 -2.498337e+000 2.144507e+001
    endloop
  endfacet
  facet normal 1.000684e-001 9.009258e-001 4.222784e-001
    outer loop
      vertex   -1.188245e+001 7.381983e+000 0.000000e+000
      vertex   -1.276171e+001 7.479645e+000 0.000000e+000
      vertex   -1.342494e+001 -2.498337e+000 2.144507e+001
    endloop
  endfacet
  facet normal 2.005292e-002 9.062444e-001 4.222784e-001
    outer loop
      vertex   -1.276171e+001 7.479645e+000 0.000000e+000
      vertex   -1.364616e+001 7.499216e+000 0.000000e+000
      vertex   -1.342494e+001 -2.498337e+000 2.144507e+001
    endloop
  endfacet
  facet normal -2.184291e-001 8.797555e-001 4.222784e-001
    outer loop
      vertex   -1.540296e+001 7.304083e+000 0.000000e+000
      vertex   -1.626156e+001 7.090907e+000 0.000000e+000
      vertex   -1.342494e+001 -2.498337e+000 2.144507e+001
    endloop
  endfacet
  facet normal -2.953272e-001 8.570080e-001 4.222784e-001
    outer loop
      vertex   -1.626156e+001 7.090907e+000 0.000000e+000
      vertex   -1.709796e+001 6.802682e+000 0.000000e+000
      vertex   -1.342494e+001 -2.498337e+000 2.144507e+001
    endloop
  endfacet
  facet normal -3.699140e-001 8.275534e-001 4.222784e-001
    outer loop
      vertex   -1.709796e+001 6.802682e+000 0.000000e+000
      vertex   -1.790561e+001 6.441664e+000 0.000000e+000
      vertex   -1.342494e+001 -2.498337e+000 2.144507e+001
    endloop
  endfacet
  facet normal -5.740866e-001 7.015023e-001 4.222784e-001
    outer loop
      vertex   -1.940967e+001 5.513098e+000 0.000000e+000
      vertex   -2.009430e+001 4.952817e+000 0.000000e+000
      vertex   -1.342494e+001 -2.498337e+000 2.144507e+001
    endloop
  endfacet
  facet normal -6.338390e-001 6.480194e-001 4.222784e-001
    outer loop
      vertex   -2.009430e+001 4.952817e+000 0.000000e+000
      vertex   -2.072673e+001 4.334221e+000 0.000000e+000
      vertex   -1.342494e+001 -2.498337e+000 2.144507e+001
    endloop
  endfacet
  facet normal -7.816590e-001 4.590100e-001 4.222784e-001
    outer loop
      vertex   -2.226363e+001 2.179006e+000 0.000000e+000
      vertex   -1.342494e+001 -2.498337e+000 2.144507e+001
      vertex   -2.181566e+001 2.941867e+000 0.000000e+000
    endloop
  endfacet
  facet normal -8.191676e-001 3.881307e-001 4.222784e-001
    outer loop
      vertex   -2.226363e+001 2.179006e+000 0.000000e+000
      vertex   -2.264243e+001 1.379538e+000 0.000000e+000
      vertex   -1.342494e+001 -2.498337e+000 2.144507e+001
    endloop
  endfacet
  facet normal -8.502651e-001 3.142137e-001 4.222784e-001
    outer loop
      vertex   -2.264243e+001 1.379538e+000 0.000000e+000
      vertex   -2.294909e+001 5.497206e-001 0.000000e+000
      vertex   -1.342494e+001 -2.498337e+000 2.144507e+001
    endloop
  endfacet
  facet normal -9.029190e-001 8.011358e-002 4.222784e-001
    outer loop
      vertex   -2.341516e+001 -2.056004e+000 0.000000e+000
      vertex   -1.342494e+001 -2.498337e+000 2.144507e+001
      vertex   -2.333697e+001 -1.174799e+000 0.000000e+000
    endloop
  endfacet
  facet normal -9.061256e-001 2.005030e-002 4.225333e-001
    outer loop
      vertex   -2.341516e+001 -2.056004e+000 0.000000e+000
      vertex   -2.342494e+001 -2.498337e+000 0.000000e+000
      vertex   -1.342494e+001 -2.498337e+000 2.144507e+001
    endloop
  endfacet
  facet normal -9.061256e-001 -2.005030e-002 4.225333e-001
    outer loop
      vertex   -1.342494e+001 -2.498337e+000 2.144507e+001
      vertex   -2.342494e+001 -2.498337e+000 0.000000e+000
      vertex   -2.341516e+001 -2.940671e+000 0.000000e+000
    endloop
  endfacet
  facet normal -9.029190e-001 -8.011358e-002 4.222784e-001
    outer loop
      vertex   -1.342494e+001 -2.498337e+000 2.144507e+001
      vertex   -2.341516e+001 -2.940671e+000 0.000000e+000
      vertex   -2.333697e+001 -3.821876e+000 0.000000e+000
    endloop
  endfacet
  facet normal -8.923053e-001 -1.596002e-001 4.222784e-001
    outer loop
      vertex   -2.333697e+001 -3.821876e+000 0.000000e+000
      vertex   -2.318121e+001 -4.692722e+000 0.000000e+000
      vertex   -1.342494e+001 -2.498337e+000 2.144507e+001
    endloop
  endfacet
  facet normal -8.747081e-001 -2.378376e-001 4.222784e-001
    outer loop
      vertex   -2.318121e+001 -4.692722e+000 0.000000e+000
      vertex   -2.294909e+001 -5.546395e+000 0.000000e+000
      vertex   -1.342494e+001 -2.498337e+000 2.144507e+001
    endloop
  endfacet
  facet normal -8.502651e-001 -3.142137e-001 4.222784e-001
    outer loop
      vertex   -2.294909e+001 -5.546395e+000 0.000000e+000
      vertex   -2.264243e+001 -6.376212e+000 0.000000e+000
      vertex   -1.342494e+001 -2.498337e+000 2.144507e+001
    endloop
  endfacet
  facet normal -7.380329e-001 -5.262969e-001 4.222784e-001
    outer loop
      vertex   -2.181566e+001 -7.938541e+000 0.000000e+000
      vertex   -2.130202e+001 -8.658825e+000 0.000000e+000
      vertex   -1.342494e+001 -2.498337e+000 2.144507e+001
    endloop
  endfacet
  facet normal -6.886307e-001 -5.894648e-001 4.222784e-001
    outer loop
      vertex   -2.130202e+001 -8.658825e+000 0.000000e+000
      vertex   -2.072673e+001 -9.330895e+000 0.000000e+000
      vertex   -1.342494e+001 -2.498337e+000 2.144507e+001
    endloop
  endfacet
  facet normal -5.098413e-001 -7.494951e-001 4.222784e-001
    outer loop
      vertex   -1.867820e+001 -1.100735e+001 0.000000e+000
      vertex   -1.342494e+001 -2.498337e+000 2.144507e+001
      vertex   -1.940967e+001 -1.050977e+001 0.000000e+000
    endloop
  endfacet
  facet normal -4.416057e-001 -7.916220e-001 4.222784e-001
    outer loop
      vertex   -1.867820e+001 -1.100735e+001 0.000000e+000
      vertex   -1.790561e+001 -1.143834e+001 0.000000e+000
      vertex   -1.342494e+001 -2.498337e+000 2.144507e+001
    endloop
  endfacet
  facet normal -3.699140e-001 -8.275534e-001 4.222784e-001
    outer loop
      vertex   -1.790561e+001 -1.143834e+001 0.000000e+000
      vertex   -1.709796e+001 -1.179936e+001 0.000000e+000
      vertex   -1.342494e+001 -2.498337e+000 2.144507e+001
    endloop
  endfacet
  facet normal -1.398214e-001 -8.956176e-001 4.222784e-001
    outer loop
      vertex   -1.452888e+001 -1.243722e+001 0.000000e+000
      vertex   -1.342494e+001 -2.498337e+000 2.144507e+001
      vertex   -1.540296e+001 -1.230076e+001 0.000000e+000
    endloop
  endfacet
  facet normal -6.011952e-002 -9.044703e-001 4.222784e-001
    outer loop
      vertex   -1.452888e+001 -1.243722e+001 0.000000e+000
      vertex   -1.364616e+001 -1.249589e+001 0.000000e+000
      vertex   -1.342494e+001 -2.498337e+000 2.144507e+001
    endloop
  endfacet
  facet normal 2.005292e-002 -9.062444e-001 4.222784e-001
    outer loop
      vertex   -1.364616e+001 -1.249589e+001 0.000000e+000
      vertex   -1.276171e+001 -1.247632e+001 0.000000e+000
      vertex   -1.342494e+001 -2.498337e+000 2.144507e+001
    endloop
  endfacet
  facet normal 2.571298e-001 -8.692325e-001 4.222784e-001
    outer loop
      vertex   -1.016694e+001 -1.195272e+001 0.000000e+000
      vertex   -1.342494e+001 -2.498337e+000 2.144507e+001
      vertex   -1.101527e+001 -1.220367e+001 0.000000e+000
    endloop
  endfacet
  facet normal 3.329465e-001 -8.431059e-001 4.222784e-001
    outer loop
      vertex   -1.016694e+001 -1.195272e+001 0.000000e+000
      vertex   -9.344107e+000 -1.162778e+001 0.000000e+000
      vertex   -1.342494e+001 -2.498337e+000 2.144507e+001
    endloop
  endfacet
  facet normal 4.061574e-001 -8.103809e-001 4.222784e-001
    outer loop
      vertex   -9.344107e+000 -1.162778e+001 0.000000e+000
      vertex   -8.553214e+000 -1.123139e+001 0.000000e+000
      vertex   -1.342494e+001 -2.498337e+000 2.144507e+001
    endloop
  endfacet
  facet normal 6.045545e-001 -6.754219e-001 4.222784e-001
    outer loop
      vertex   -6.432526e+000 -9.647190e+000 0.000000e+000
      vertex   -1.342494e+001 -2.498337e+000 2.144507e+001
      vertex   -7.091705e+000 -1.023721e+001 0.000000e+000
    endloop
  endfacet
  facet normal 6.618826e-001 -6.193483e-001 4.222784e-001
    outer loop
      vertex   -6.432526e+000 -9.647190e+000 0.000000e+000
      vertex   -5.828072e+000 -9.001225e+000 0.000000e+000
      vertex   -1.342494e+001 -2.498337e+000 2.144507e+001
    endloop
  endfacet
  facet normal 7.140306e-001 -5.584274e-001 4.222784e-001
    outer loop
      vertex   -5.828072e+000 -9.001225e+000 0.000000e+000
      vertex   -5.283074e+000 -8.304366e+000 0.000000e+000
      vertex   -1.342494e+001 -2.498337e+000 2.144507e+001
    endloop
  endfacet
  facet normal 8.355341e-001 -3.515163e-001 4.222784e-001
    outer loop
      vertex   -4.044945e+000 -5.964696e+000 0.000000e+000
      vertex   -1.342494e+001 -2.498337e+000 2.144507e+001
      vertex   -4.388008e+000 -6.780137e+000 0.000000e+000
    endloop
  endfacet
  facet normal 8.633316e-001 -2.762961e-001 4.222784e-001
    outer loop
      vertex   -4.044945e+000 -5.964696e+000 0.000000e+000
      vertex   -3.775294e+000 -5.122127e+000 0.000000e+000
      vertex   -1.342494e+001 -2.498337e+000 2.144507e+001
    endloop
  endfacet
  facet normal 8.843723e-001 -1.989136e-001 4.222784e-001
    outer loop
      vertex   -3.775294e+000 -5.122127e+000 0.000000e+000
      vertex   -3.581164e+000 -4.259022e+000 0.000000e+000
      vertex   -1.342494e+001 -2.498337e+000 2.144507e+001
    endloop
  endfacet
  facet normal -8.923053e-001 1.596002e-001 4.222784e-001
    outer loop
      vertex   -2.333697e+001 -1.174799e+000 0.000000e+000
      vertex   -1.342494e+001 -2.498337e+000 2.144507e+001
      vertex   -2.318121e+001 -3.039520e-001 0.000000e+000
    endloop
  endfacet
  facet normal -7.380329e-001 5.262969e-001 4.222784e-001
    outer loop
      vertex   -2.181566e+001 2.941867e+000 0.000000e+000
      vertex   -1.342494e+001 -2.498337e+000 2.144507e+001
      vertex   -2.130202e+001 3.662151e+000 0.000000e+000
    endloop
  endfacet
  facet normal -5.098413e-001 7.494951e-001 4.222784e-001
    outer loop
      vertex   -1.940967e+001 5.513098e+000 0.000000e+000
      vertex   -1.342494e+001 -2.498337e+000 2.144507e+001
      vertex   -1.867820e+001 6.010678e+000 0.000000e+000
    endloop
  endfacet
  facet normal -1.398214e-001 8.956176e-001 4.222784e-001
    outer loop
      vertex   -1.540296e+001 7.304083e+000 0.000000e+000
      vertex   -1.342494e+001 -2.498337e+000 2.144507e+001
      vertex   -1.452888e+001 7.440542e+000 0.000000e+000
    endloop
  endfacet
  facet normal 2.571298e-001 8.692325e-001 4.222784e-001
    outer loop
      vertex   -1.101527e+001 7.206994e+000 0.000000e+000
      vertex   -1.342494e+001 -2.498337e+000 2.144507e+001
      vertex   -1.016694e+001 6.956048e+000 0.000000e+000
    endloop
  endfacet
  facet normal 4.761896e-001 7.713135e-001 4.222784e-001
    outer loop
      vertex   -8.553214e+000 6.234719e+000 0.000000e+000
      vertex   -1.342494e+001 -2.498337e+000 2.144507e+001
      vertex   -7.800450e+000 5.769981e+000 0.000000e+000
    endloop
  endfacet
  facet normal 7.605904e-001 4.931361e-001 4.222784e-001
    outer loop
      vertex   -5.283074e+000 3.307692e+000 0.000000e+000
      vertex   -1.342494e+001 -2.498337e+000 2.144507e+001
      vertex   -4.801797e+000 2.565393e+000 0.000000e+000
    endloop
  endfacet
  facet normal 8.984916e-001 1.199743e-001 4.222784e-001
    outer loop
      vertex   -3.581164e+000 -7.376520e-001 0.000000e+000
      vertex   -1.342494e+001 -2.498337e+000 2.144507e+001
      vertex   -3.464075e+000 -1.614536e+000 0.000000e+000
    endloop
  endfacet
  facet normal 9.055790e-001 -4.009603e-002 4.222784e-001
    outer loop
      vertex   -3.424943e+000 -2.498337e+000 0.000000e+000
      vertex   -1.342494e+001 -2.498337e+000 2.144507e+001
      vertex   -3.464075e+000 -3.382138e+000 0.000000e+000
    endloop
  endfacet
  facet normal 8.011975e-001 -4.239853e-001 4.222784e-001
    outer loop
      vertex   -4.388008e+000 -6.780137e+000 0.000000e+000
      vertex   -1.342494e+001 -2.498337e+000 2.144507e+001
      vertex   -4.801797e+000 -7.562067e+000 0.000000e+000
    endloop
  endfacet
  facet normal 5.424949e-001 -7.262095e-001 4.222784e-001
    outer loop
      vertex   -7.091705e+000 -1.023721e+001 0.000000e+000
      vertex   -1.342494e+001 -2.498337e+000 2.144507e+001
      vertex   -7.800450e+000 -1.076665e+001 0.000000e+000
    endloop
  endfacet
  facet normal 1.793008e-001 -8.885562e-001 4.222784e-001
    outer loop
      vertex   -1.101527e+001 -1.220367e+001 0.000000e+000
      vertex   -1.342494e+001 -2.498337e+000 2.144507e+001
      vertex   -1.188245e+001 -1.237866e+001 0.000000e+000
    endloop
  endfacet
  facet normal -2.184291e-001 -8.797555e-001 4.222784e-001
    outer loop
      vertex   -1.540296e+001 -1.230076e+001 0.000000e+000
      vertex   -1.342494e+001 -2.498337e+000 2.144507e+001
      vertex   -1.626156e+001 -1.208758e+001 0.000000e+000
    endloop
  endfacet
  facet normal -5.740866e-001 -7.015023e-001 4.222784e-001
    outer loop
      vertex   -1.940967e+001 -1.050977e+001 0.000000e+000
      vertex   -1.342494e+001 -2.498337e+000 2.144507e+001
      vertex   -2.009430e+001 -9.949491e+000 0.000000e+000
    endloop
  endfacet
  facet normal -7.816590e-001 -4.590100e-001 4.222784e-001
    outer loop
      vertex   -2.181566e+001 -7.938541e+000 0.000000e+000
      vertex   -1.342494e+001 -2.498337e+000 2.144507e+001
      vertex   -2.226363e+001 -7.175680e+000 0.000000e+000
    endloop
  endfacet
  facet normal -6.338390e-001 -6.480194e-001 4.222784e-001
    outer loop
      vertex   -1.342494e+001 -2.498337e+000 2.144507e+001
      vertex   -2.072673e+001 -9.330895e+000 0.000000e+000
      vertex   -2.009430e+001 -9.949491e+000 0.000000e+000
    endloop
  endfacet
  facet normal 9.055790e-001 4.009603e-002 4.222784e-001
    outer loop
      vertex   -1.342494e+001 -2.498337e+000 2.144507e+001
      vertex   -3.424943e+000 -2.498337e+000 0.000000e+000
      vertex   -3.464075e+000 -1.614536e+000 0.000000e+000
    endloop
  endfacet
  facet normal 8.011975e-001 4.239853e-001 4.222784e-001
    outer loop
      vertex   -1.342494e+001 -2.498337e+000 2.144507e+001
      vertex   -4.388008e+000 1.783463e+000 0.000000e+000
      vertex   -4.801797e+000 2.565393e+000 0.000000e+000
    endloop
  endfacet
  facet normal 5.424949e-001 7.262095e-001 4.222784e-001
    outer loop
      vertex   -1.342494e+001 -2.498337e+000 2.144507e+001
      vertex   -7.091705e+000 5.240532e+000 0.000000e+000
      vertex   -7.800450e+000 5.769981e+000 0.000000e+000
    endloop
  endfacet
  facet normal 3.329465e-001 8.431059e-001 4.222784e-001
    outer loop
      vertex   -1.342494e+001 -2.498337e+000 2.144507e+001
      vertex   -9.344107e+000 6.631108e+000 0.000000e+000
      vertex   -1.016694e+001 6.956048e+000 0.000000e+000
    endloop
  endfacet
  facet normal -6.011952e-002 9.044703e-001 4.222784e-001
    outer loop
      vertex   -1.342494e+001 -2.498337e+000 2.144507e+001
      vertex   -1.364616e+001 7.499216e+000 0.000000e+000
      vertex   -1.452888e+001 7.440542e+000 0.000000e+000
    endloop
  endfacet
  facet normal -4.416057e-001 7.916220e-001 4.222784e-001
    outer loop
      vertex   -1.342494e+001 -2.498337e+000 2.144507e+001
      vertex   -1.790561e+001 6.441664e+000 0.000000e+000
      vertex   -1.867820e+001 6.010678e+000 0.000000e+000
    endloop
  endfacet
  facet normal -6.886307e-001 5.894648e-001 4.222784e-001
    outer loop
      vertex   -1.342494e+001 -2.498337e+000 2.144507e+001
      vertex   -2.072673e+001 4.334221e+000 0.000000e+000
      vertex   -2.130202e+001 3.662151e+000 0.000000e+000
    endloop
  endfacet
  facet normal -8.747081e-001 2.378376e-001 4.222784e-001
    outer loop
      vertex   -1.342494e+001 -2.498337e+000 2.144507e+001
      vertex   -2.294909e+001 5.497206e-001 0.000000e+000
      vertex   -2.318121e+001 -3.039520e-001 0.000000e+000
    endloop
  endfacet
  facet normal -8.191676e-001 -3.881307e-001 4.222784e-001
    outer loop
      vertex   -1.342494e+001 -2.498337e+000 2.144507e+001
      vertex   -2.264243e+001 -6.376212e+000 0.000000e+000
      vertex   -2.226363e+001 -7.175680e+000 0.000000e+000
    endloop
  endfacet
  facet normal -2.953272e-001 -8.570080e-001 4.222784e-001
    outer loop
      vertex   -1.342494e+001 -2.498337e+000 2.144507e+001
      vertex   -1.709796e+001 -1.179936e+001 0.000000e+000
      vertex   -1.626156e+001 -1.208758e+001 0.000000e+000
    endloop
  endfacet
  facet normal 1.000684e-001 -9.009258e-001 4.222784e-001
    outer loop
      vertex   -1.342494e+001 -2.498337e+000 2.144507e+001
      vertex   -1.276171e+001 -1.247632e+001 0.000000e+000
      vertex   -1.188245e+001 -1.237866e+001 0.000000e+000
    endloop
  endfacet
  facet normal 4.761896e-001 -7.713135e-001 4.222784e-001
    outer loop
      vertex   -1.342494e+001 -2.498337e+000 2.144507e+001
      vertex   -8.553214e+000 -1.123139e+001 0.000000e+000
      vertex   -7.800450e+000 -1.076665e+001 0.000000e+000
    endloop
  endfacet
  facet normal 7.605904e-001 -4.931361e-001 4.222784e-001
    outer loop
      vertex   -1.342494e+001 -2.498337e+000 2.144507e+001
      vertex   -5.283074e+000 -8.304366e+000 0.000000e+000
      vertex   -4.801797e+000 -7.562067e+000 0.000000e+000
    endloop
  endfacet
  facet normal 8.984916e-001 -1.199743e-001 4.222784e-001
    outer loop
      vertex   -1.342494e+001 -2.498337e+000 2.144507e+001
      vertex   -3.581164e+000 -4.259022e+000 0.000000e+000
      vertex   -3.464075e+000 -3.382138e+000 0.000000e+000
    endloop
  endfacet
  facet normal 0.000000e+000 0.000000e+000 1.000000e+000
    outer loop
      vertex   -1.276171e+001 7.479645e+000 0.000000e+000
      vertex   -1.452888e+001 7.440542e+000 0.000000e+000
      vertex   -1.188245e+001 7.381983e+000 0.000000e+000
    endloop
  endfacet
  facet normal 0.000000e+000 0.000000e+000 1.000000e+000
    outer loop
      vertex   -1.276171e+001 7.479645e+000 0.000000e+000
      vertex   -1.364616e+001 7.499216e+000 0.000000e+000
      vertex   -1.452888e+001 7.440542e+000 0.000000e+000
    endloop
  endfacet
  facet normal 0.000000e+000 0.000000e+000 1.000000e+000
    outer loop
      vertex   -1.188245e+001 7.381983e+000 0.000000e+000
      vertex   -1.540296e+001 7.304083e+000 0.000000e+000
      vertex   -1.101527e+001 7.206994e+000 0.000000e+000
    endloop
  endfacet
  facet normal 0.000000e+000 0.000000e+000 1.000000e+000
    outer loop
      vertex   -1.188245e+001 7.381983e+000 0.000000e+000
      vertex   -1.452888e+001 7.440542e+000 0.000000e+000
      vertex   -1.540296e+001 7.304083e+000 0.000000e+000
    endloop
  endfacet
  facet normal 0.000000e+000 0.000000e+000 1.000000e+000
    outer loop
      vertex   -1.101527e+001 7.206994e+000 0.000000e+000
      vertex   -1.626156e+001 7.090907e+000 0.000000e+000
      vertex   -1.016694e+001 6.956048e+000 0.000000e+000
    endloop
  endfacet
  facet normal 0.000000e+000 0.000000e+000 1.000000e+000
    outer loop
      vertex   -1.101527e+001 7.206994e+000 0.000000e+000
      vertex   -1.540296e+001 7.304083e+000 0.000000e+000
      vertex   -1.626156e+001 7.090907e+000 0.000000e+000
    endloop
  endfacet
  facet normal 0.000000e+000 0.000000e+000 1.000000e+000
    outer loop
      vertex   -1.016694e+001 6.956048e+000 0.000000e+000
      vertex   -1.709796e+001 6.802682e+000 0.000000e+000
      vertex   -9.344107e+000 6.631108e+000 0.000000e+000
    endloop
  endfacet
  facet normal 0.000000e+000 0.000000e+000 1.000000e+000
    outer loop
      vertex   -1.016694e+001 6.956048e+000 0.000000e+000
      vertex   -1.626156e+001 7.090907e+000 0.000000e+000
      vertex   -1.709796e+001 6.802682e+000 0.000000e+000
    endloop
  endfacet
  facet normal 0.000000e+000 0.000000e+000 1.000000e+000
    outer loop
      vertex   -9.344107e+000 6.631108e+000 0.000000e+000
      vertex   -1.790561e+001 6.441664e+000 0.000000e+000
      vertex   -8.553214e+000 6.234719e+000 0.000000e+000
    endloop
  endfacet
  facet normal 0.000000e+000 0.000000e+000 1.000000e+000
    outer loop
      vertex   -9.344107e+000 6.631108e+000 0.000000e+000
      vertex   -1.709796e+001 6.802682e+000 0.000000e+000
      vertex   -1.790561e+001 6.441664e+000 0.000000e+000
    endloop
  endfacet
  facet normal 0.000000e+000 0.000000e+000 1.000000e+000
    outer loop
      vertex   -8.553214e+000 6.234719e+000 0.000000e+000
      vertex   -1.867820e+001 6.010678e+000 0.000000e+000
      vertex   -7.800450e+000 5.769981e+000 0.000000e+000
    endloop
  endfacet
  facet normal 0.000000e+000 0.000000e+000 1.000000e+000
    outer loop
      vertex   -8.553214e+000 6.234719e+000 0.000000e+000
      vertex   -1.790561e+001 6.441664e+000 0.000000e+000
      vertex   -1.867820e+001 6.010678e+000 0.000000e+000
    endloop
  endfacet
  facet normal 0.000000e+000 0.000000e+000 1.000000e+000
    outer loop
      vertex   -7.800450e+000 5.769981e+000 0.000000e+000
      vertex   -1.940967e+001 5.513098e+000 0.000000e+000
      vertex   -7.091705e+000 5.240532e+000 0.000000e+000
    endloop
  endfacet
  facet normal 0.000000e+000 0.000000e+000 1.000000e+000
    outer loop
      vertex   -7.800450e+000 5.769981e+000 0.000000e+000
      vertex   -1.867820e+001 6.010678e+000 0.000000e+000
      vertex   -1.940967e+001 5.513098e+000 0.000000e+000
    endloop
  endfacet
  facet normal 0.000000e+000 0.000000e+000 1.000000e+000
    outer loop
      vertex   -7.091705e+000 5.240532e+000 0.000000e+000
      vertex   -2.009430e+001 4.952817e+000 0.000000e+000
      vertex   -6.432526e+000 4.650516e+000 0.000000e+000
    endloop
  endfacet
  facet normal 0.000000e+000 0.000000e+000 1.000000e+000
    outer loop
      vertex   -7.091705e+000 5.240532e+000 0.000000e+000
      vertex   -1.940967e+001 5.513098e+000 0.000000e+000
      vertex   -2.009430e+001 4.952817e+000 0.000000e+000
    endloop
  endfacet
  facet normal 0.000000e+000 0.000000e+000 1.000000e+000
    outer loop
      vertex   -6.432526e+000 4.650516e+000 0.000000e+000
      vertex   -2.072673e+001 4.334221e+000 0.000000e+000
      vertex   -5.828072e+000 4.004551e+000 0.000000e+000
    endloop
  endfacet
  facet normal 0.000000e+000 0.000000e+000 1.000000e+000
    outer loop
      vertex   -6.432526e+000 4.650516e+000 0.000000e+000
      vertex   -2.009430e+001 4.952817e+000 0.000000e+000
      vertex   -2.072673e+001 4.334221e+000 0.000000e+000
    endloop
  endfacet
  facet normal -0.000000e+000 0.000000e+000 1.000000e+000
    outer loop
      vertex   -2.072673e+001 4.334221e+000 0.000000e+000
      vertex   -2.130202e+001 3.662151e+000 0.000000e+000
      vertex   -5.828072e+000 4.004551e+000 0.000000e+000
    endloop
  endfacet
  facet normal 0.000000e+000 0.000000e+000 1.000000e+000
    outer loop
      vertex   -5.828072e+000 4.004551e+000 0.000000e+000
      vertex   -2.130202e+001 3.662151e+000 0.000000e+000
      vertex   -5.283074e+000 3.307692e+000 0.000000e+000
    endloop
  endfacet
  facet normal 0.000000e+000 0.000000e+000 1.000000e+000
    outer loop
      vertex   -5.283074e+000 3.307692e+000 0.000000e+000
      vertex   -2.130202e+001 3.662151e+000 0.000000e+000
      vertex   -2.181566e+001 2.941867e+000 0.000000e+000
    endloop
  endfacet
  facet normal 0.000000e+000 0.000000e+000 1.000000e+000
    outer loop
      vertex   -4.801797e+000 2.565393e+000 0.000000e+000
      vertex   -2.181566e+001 2.941867e+000 0.000000e+000
      vertex   -2.226363e+001 2.179006e+000 0.000000e+000
    endloop
  endfacet
  facet normal 0.000000e+000 0.000000e+000 1.000000e+000
    outer loop
      vertex   -4.388008e+000 1.783463e+000 0.000000e+000
      vertex   -2.226363e+001 2.179006e+000 0.000000e+000
      vertex   -2.264243e+001 1.379538e+000 0.000000e+000
    endloop
  endfacet
  facet normal 0.000000e+000 0.000000e+000 1.000000e+000
    outer loop
      vertex   -4.044945e+000 9.680221e-001 0.000000e+000
      vertex   -2.264243e+001 1.379538e+000 0.000000e+000
      vertex   -2.294909e+001 5.497206e-001 0.000000e+000
    endloop
  endfacet
  facet normal 0.000000e+000 0.000000e+000 1.000000e+000
    outer loop
      vertex   -3.775294e+000 1.254524e-001 0.000000e+000
      vertex   -2.294909e+001 5.497206e-001 0.000000e+000
      vertex   -2.318121e+001 -3.039520e-001 0.000000e+000
    endloop
  endfacet
  facet normal 0.000000e+000 0.000000e+000 1.000000e+000
    outer loop
      vertex   -3.581164e+000 -7.376520e-001 0.000000e+000
      vertex   -2.318121e+001 -3.039520e-001 0.000000e+000
      vertex   -2.333697e+001 -1.174799e+000 0.000000e+000
    endloop
  endfacet
  facet normal 0.000000e+000 0.000000e+000 1.000000e+000
    outer loop
      vertex   -3.464075e+000 -1.614536e+000 0.000000e+000
      vertex   -2.333697e+001 -1.174799e+000 0.000000e+000
      vertex   -2.341516e+001 -2.056004e+000 0.000000e+000
    endloop
  endfacet
  facet normal 0.000000e+000 0.000000e+000 1.000000e+000
    outer loop
      vertex   -3.424943e+000 -2.498337e+000 0.000000e+000
      vertex   -2.341516e+001 -2.056004e+000 0.000000e+000
      vertex   -2.341516e+001 -2.940671e+000 0.000000e+000
    endloop
  endfacet
  facet normal 0.000000e+000 0.000000e+000 1.000000e+000
    outer loop
      vertex   -3.464075e+000 -3.382138e+000 0.000000e+000
      vertex   -2.341516e+001 -2.940671e+000 0.000000e+000
      vertex   -2.333697e+001 -3.821876e+000 0.000000e+000
    endloop
  endfacet
  facet normal 0.000000e+000 0.000000e+000 1.000000e+000
    outer loop
      vertex   -3.581164e+000 -4.259022e+000 0.000000e+000
      vertex   -2.333697e+001 -3.821876e+000 0.000000e+000
      vertex   -2.318121e+001 -4.692722e+000 0.000000e+000
    endloop
  endfacet
  facet normal 0.000000e+000 0.000000e+000 1.000000e+000
    outer loop
      vertex   -3.775294e+000 -5.122127e+000 0.000000e+000
      vertex   -2.318121e+001 -4.692722e+000 0.000000e+000
      vertex   -2.294909e+001 -5.546395e+000 0.000000e+000
    endloop
  endfacet
  facet normal 0.000000e+000 0.000000e+000 1.000000e+000
    outer loop
      vertex   -4.044945e+000 -5.964696e+000 0.000000e+000
      vertex   -2.294909e+001 -5.546395e+000 0.000000e+000
      vertex   -2.264243e+001 -6.376212e+000 0.000000e+000
    endloop
  endfacet
  facet normal 0.000000e+000 0.000000e+000 1.000000e+000
    outer loop
      vertex   -4.388008e+000 -6.780137e+000 0.000000e+000
      vertex   -2.264243e+001 -6.376212e+000 0.000000e+000
      vertex   -2.226363e+001 -7.175680e+000 0.000000e+000
    endloop
  endfacet
  facet normal 0.000000e+000 0.000000e+000 1.000000e+000
    outer loop
      vertex   -4.801797e+000 -7.562067e+000 0.000000e+000
      vertex   -2.226363e+001 -7.175680e+000 0.000000e+000
      vertex   -2.181566e+001 -7.938541e+000 0.000000e+000
    endloop
  endfacet
  facet normal 0.000000e+000 0.000000e+000 1.000000e+000
    outer loop
      vertex   -5.283074e+000 -8.304366e+000 0.000000e+000
      vertex   -2.181566e+001 -7.938541e+000 0.000000e+000
      vertex   -2.130202e+001 -8.658825e+000 0.000000e+000
    endloop
  endfacet
  facet normal 0.000000e+000 0.000000e+000 1.000000e+000
    outer loop
      vertex   -5.828072e+000 -9.001225e+000 0.000000e+000
      vertex   -2.130202e+001 -8.658825e+000 0.000000e+000
      vertex   -2.072673e+001 -9.330895e+000 0.000000e+000
    endloop
  endfacet
  facet normal 0.000000e+000 0.000000e+000 1.000000e+000
    outer loop
      vertex   -6.432526e+000 -9.647190e+000 0.000000e+000
      vertex   -2.072673e+001 -9.330895e+000 0.000000e+000
      vertex   -2.009430e+001 -9.949491e+000 0.000000e+000
    endloop
  endfacet
  facet normal 0.000000e+000 0.000000e+000 1.000000e+000
    outer loop
      vertex   -7.091705e+000 -1.023721e+001 0.000000e+000
      vertex   -2.009430e+001 -9.949491e+000 0.000000e+000
      vertex   -1.940967e+001 -1.050977e+001 0.000000e+000
    endloop
  endfacet
  facet normal 0.000000e+000 0.000000e+000 1.000000e+000
    outer loop
      vertex   -7.800450e+000 -1.076665e+001 0.000000e+000
      vertex   -1.940967e+001 -1.050977e+001 0.000000e+000
      vertex   -1.867820e+001 -1.100735e+001 0.000000e+000
    endloop
  endfacet
  facet normal 0.000000e+000 0.000000e+000 1.000000e+000
    outer loop
      vertex   -8.553214e+000 -1.123139e+001 0.000000e+000
      vertex   -1.867820e+001 -1.100735e+001 0.000000e+000
      vertex   -1.790561e+001 -1.143834e+001 0.000000e+000
    endloop
  endfacet
  facet normal 0.000000e+000 0.000000e+000 1.000000e+000
    outer loop
      vertex   -9.344107e+000 -1.162778e+001 0.000000e+000
      vertex   -1.790561e+001 -1.143834e+001 0.000000e+000
      vertex   -1.709796e+001 -1.179936e+001 0.000000e+000
    endloop
  endfacet
  facet normal 0.000000e+000 0.000000e+000 1.000000e+000
    outer loop
      vertex   -1.016694e+001 -1.195272e+001 0.000000e+000
      vertex   -1.709796e+001 -1.179936e+001 0.000000e+000
      vertex   -1.626156e+001 -1.208758e+001 0.000000e+000
    endloop
  endfacet
  facet normal 0.000000e+000 0.000000e+000 1.000000e+000
    outer loop
      vertex   -1.101527e+001 -1.220367e+001 0.000000e+000
      vertex   -1.626156e+001 -1.208758e+001 0.000000e+000
      vertex   -1.540296e+001 -1.230076e+001 0.000000e+000
    endloop
  endfacet
  facet normal 0.000000e+000 0.000000e+000 1.000000e+000
    outer loop
      vertex   -1.188245e+001 -1.237866e+001 0.000000e+000
      vertex   -1.540296e+001 -1.230076e+001 0.000000e+000
      vertex   -1.452888e+001 -1.243722e+001 0.000000e+000
    endloop
  endfacet
  facet normal 0.000000e+000 0.000000e+000 1.000000e+000
    outer loop
      vertex   -1.276171e+001 -1.247632e+001 0.000000e+000
      vertex   -1.452888e+001 -1.243722e+001 0.000000e+000
      vertex   -1.364616e+001 -1.249589e+001 0.000000e+000
    endloop
  endfacet
  facet normal 0.000000e+000 -0.000000e+000 1.000000e+000
    outer loop
      vertex   -1.276171e+001 -1.247632e+001 0.000000e+000
      vertex   -1.188245e+001 -1.237866e+001 0.000000e+000
      vertex   -1.452888e+001 -1.243722e+001 0.000000e+000
    endloop
  endfacet
  facet normal 0.000000e+000 -0.000000e+000 1.000000e+000
    outer loop
      vertex   -1.188245e+001 -1.237866e+001 0.000000e+000
      vertex   -1.101527e+001 -1.220367e+001 0.000000e+000
      vertex   -1.540296e+001 -1.230076e+001 0.000000e+000
    endloop
  endfacet
  facet normal 0.000000e+000 -0.000000e+000 1.000000e+000
    outer loop
      vertex   -1.101527e+001 -1.220367e+001 0.000000e+000
      vertex   -1.016694e+001 -1.195272e+001 0.000000e+000
      vertex   -1.626156e+001 -1.208758e+001 0.000000e+000
    endloop
  endfacet
  facet normal 0.000000e+000 -0.000000e+000 1.000000e+000
    outer loop
      vertex   -1.016694e+001 -1.195272e+001 0.000000e+000
      vertex   -9.344107e+000 -1.162778e+001 0.000000e+000
      vertex   -1.709796e+001 -1.179936e+001 0.000000e+000
    endloop
  endfacet
  facet normal 0.000000e+000 -0.000000e+000 1.000000e+000
    outer loop
      vertex   -9.344107e+000 -1.162778e+001 0.000000e+000
      vertex   -8.553214e+000 -1.123139e+001 0.000000e+000
      vertex   -1.790561e+001 -1.143834e+001 0.000000e+000
    endloop
  endfacet
  facet normal 0.000000e+000 -0.000000e+000 1.000000e+000
    outer loop
      vertex   -8.553214e+000 -1.123139e+001 0.000000e+000
      vertex   -7.800450e+000 -1.076665e+001 0.000000e+000
      vertex   -1.867820e+001 -1.100735e+001 0.000000e+000
    endloop
  endfacet
  facet normal 0.000000e+000 -0.000000e+000 1.000000e+000
    outer loop
      vertex   -7.800450e+000 -1.076665e+001 0.000000e+000
      vertex   -7.091705e+000 -1.023721e+001 0.000000e+000
      vertex   -1.940967e+001 -1.050977e+001 0.000000e+000
    endloop
  endfacet
  facet normal 0.000000e+000 -0.000000e+000 1.000000e+000
    outer loop
      vertex   -7.091705e+000 -1.023721e+001 0.000000e+000
      vertex   -6.432526e+000 -9.647190e+000 0.000000e+000
      vertex   -2.009430e+001 -9.949491e+000 0.000000e+000
    endloop
  endfacet
  facet normal 0.000000e+000 -0.000000e+000 1.000000e+000
    outer loop
      vertex   -6.432526e+000 -9.647190e+000 0.000000e+000
      vertex   -5.828072e+000 -9.001225e+000 0.000000e+000
      vertex   -2.072673e+001 -9.330895e+000 0.000000e+000
    endloop
  endfacet
  facet normal 0.000000e+000 -0.000000e+000 1.000000e+000
    outer loop
      vertex   -5.828072e+000 -9.001225e+000 0.000000e+000
      vertex   -5.283074e+000 -8.304366e+000 0.000000e+000
      vertex   -2.130202e+001 -8.658825e+000 0.000000e+000
    endloop
  endfacet
  facet normal 0.000000e+000 -0.000000e+000 1.000000e+000
    outer loop
      vertex   -5.283074e+000 -8.304366e+000 0.000000e+000
      vertex   -4.801797e+000 -7.562067e+000 0.000000e+000
      vertex   -2.181566e+001 -7.938541e+000 0.000000e+000
    endloop
  endfacet
  facet normal 0.000000e+000 -0.000000e+000 1.000000e+000
    outer loop
      vertex   -4.801797e+000 -7.562067e+000 0.000000e+000
      vertex   -4.388008e+000 -6.780137e+000 0.000000e+000
      vertex   -2.226363e+001 -7.175680e+000 0.000000e+000
    endloop
  endfacet
  facet normal 0.000000e+000 -0.000000e+000 1.000000e+000
    outer loop
      vertex   -4.388008e+000 -6.780137e+000 0.000000e+000
      vertex   -4.044945e+000 -5.964696e+000 0.000000e+000
      vertex   -2.264243e+001 -6.376212e+000 0.000000e+000
    endloop
  endfacet
  facet normal 0.000000e+000 -0.000000e+000 1.000000e+000
    outer loop
      vertex   -4.044945e+000 -5.964696e+000 0.000000e+000
      vertex   -3.775294e+000 -5.122127e+000 0.000000e+000
      vertex   -2.294909e+001 -5.546395e+000 0.000000e+000
    endloop
  endfacet
  facet normal 0.000000e+000 -0.000000e+000 1.000000e+000
    outer loop
      vertex   -3.775294e+000 -5.122127e+000 0.000000e+000
      vertex   -3.581164e+000 -4.259022e+000 0.000000e+000
      vertex   -2.318121e+001 -4.692722e+000 0.000000e+000
    endloop
  endfacet
  facet normal 0.000000e+000 -0.000000e+000 1.000000e+000
    outer loop
      vertex   -3.581164e+000 -4.259022e+000 0.000000e+000
      vertex   -3.464075e+000 -3.382138e+000 0.000000e+000
      vertex   -2.333697e+001 -3.821876e+000 0.000000e+000
    endloop
  endfacet
  facet normal 0.000000e+000 -0.000000e+000 1.000000e+000
    outer loop
      vertex   -3.464075e+000 -3.382138e+000 0.000000e+000
      vertex   -3.424943e+000 -2.498337e+000 0.000000e+000
      vertex   -2.341516e+001 -2.940671e+000 0.000000e+000
    endloop
  endfacet
  facet normal -0.000000e+000 -0.000000e+000 1.000000e+000
    outer loop
      vertex   -2.341516e+001 -2.056004e+000 0.000000e+000
      vertex   -3.424943e+000 -2.498337e+000 0.000000e+000
      vertex   -3.464075e+000 -1.614536e+000 0.000000e+000
    endloop
  endfacet
  facet normal -0.000000e+000 -0.000000e+000 1.000000e+000
    outer loop
      vertex   -2.333697e+001 -1.174799e+000 0.000000e+000
      vertex   -3.464075e+000 -1.614536e+000 0.000000e+000
      vertex   -3.581164e+000 -7.376520e-001 0.000000e+000
    endloop
  endfacet
  facet normal -0.000000e+000 -0.000000e+000 1.000000e+000
    outer loop
      vertex   -2.318121e+001 -3.039520e-001 0.000000e+000
      vertex   -3.581164e+000 -7.376520e-001 0.000000e+000
      vertex   -3.775294e+000 1.254524e-001 0.000000e+000
    endloop
  endfacet
  facet normal -0.000000e+000 -0.000000e+000 1.000000e+000
    outer loop
      vertex   -2.294909e+001 5.497206e-001 0.000000e+000
      vertex   -3.775294e+000 1.254524e-001 0.000000e+000
      vertex   -4.044945e+000 9.680221e-001 0.000000e+000
    endloop
  endfacet
  facet normal -0.000000e+000 -0.000000e+000 1.000000e+000
    outer loop
      vertex   -2.264243e+001 1.379538e+000 0.000000e+000
      vertex   -4.044945e+000 9.680221e-001 0.000000e+000
      vertex   -4.388008e+000 1.783463e+000 0.000000e+000
    endloop
  endfacet
  facet normal -0.000000e+000 -0.000000e+000 1.000000e+000
    outer loop
      vertex   -2.226363e+001 2.179006e+000 0.000000e+000
      vertex   -4.388008e+000 1.783463e+000 0.000000e+000
      vertex   -4.801797e+000 2.565393e+000 0.000000e+000
    endloop
  endfacet
  facet normal -0.000000e+000 -0.000000e+000 1.000000e+000
    outer loop
      vertex   -2.181566e+001 2.941867e+000 0.000000e+000
      vertex   -4.801797e+000 2.565393e+000 0.000000e+000
      vertex   -5.283074e+000 3.307692e+000 0.000000e+000
    endloop
  endfacet
endsolid
