solid cylinder
  facet normal -9.997553e-001 -2.212209e-002 -1.964836e-018
    outer loop
      vertex   -2.342494e+001 -2.498337e+000 0.000000e+000
      vertex   -2.341516e+001 -2.940671e+000 0.000000e+000
      vertex   -2.341516e+001 -2.940671e+000 3.000000e+001
    endloop
  endfacet
  facet normal -9.997553e-001 -2.212209e-002 -1.964836e-018
    outer loop
      vertex   -2.342494e+001 -2.498337e+000 3.000000e+001
      vertex   -2.342494e+001 -2.498337e+000 0.000000e+000
      vertex   -2.341516e+001 -2.940671e+000 3.000000e+001
    endloop
  endfacet
  facet normal -9.997553e-001 2.212209e-002 1.960398e-018
    outer loop
      vertex   -2.342494e+001 -2.498337e+000 3.000000e+001
      vertex   -2.341516e+001 -2.056004e+000 0.000000e+000
      vertex   -2.342494e+001 -2.498337e+000 0.000000e+000
    endloop
  endfacet
  facet normal -9.997553e-001 2.212209e-002 1.964836e-018
    outer loop
      vertex   -2.342494e+001 -2.498337e+000 3.000000e+001
      vertex   -2.341516e+001 -2.056004e+000 3.000000e+001
      vertex   -2.341516e+001 -2.056004e+000 0.000000e+000
    endloop
  endfacet
  facet normal -9.960868e-001 8.838010e-002 7.849730e-018
    outer loop
      vertex   -2.341516e+001 -2.056004e+000 0.000000e+000
      vertex   -2.341516e+001 -2.056004e+000 3.000000e+001
      vertex   -2.333697e+001 -1.174799e+000 3.000000e+001
    endloop
  endfacet
  facet normal -9.843779e-001 1.760685e-001 1.303169e-017
    outer loop
      vertex   -2.333697e+001 -1.174799e+000 0.000000e+000
      vertex   -2.333697e+001 -1.174799e+000 3.000000e+001
      vertex   -2.318121e+001 -3.039520e-001 3.000000e+001
    endloop
  endfacet
  facet normal -9.649649e-001 2.623790e-001 1.941994e-017
    outer loop
      vertex   -2.318121e+001 -3.039520e-001 0.000000e+000
      vertex   -2.318121e+001 -3.039520e-001 3.000000e+001
      vertex   -2.294909e+001 5.497206e-001 3.000000e+001
    endloop
  endfacet
  facet normal -9.379998e-001 3.466359e-001 2.052497e-017
    outer loop
      vertex   -2.294909e+001 5.497206e-001 0.000000e+000
      vertex   -2.294909e+001 5.497206e-001 3.000000e+001
      vertex   -2.264243e+001 1.379538e+000 3.000000e+001
    endloop
  endfacet
  facet normal -9.036935e-001 4.281800e-001 -5.605414e-018
    outer loop
      vertex   -2.264243e+001 1.379538e+000 0.000000e+000
      vertex   -2.264243e+001 1.379538e+000 3.000000e+001
      vertex   -2.226363e+001 2.179006e+000 3.000000e+001
    endloop
  endfacet
  facet normal -8.623146e-001 5.063730e-001 -7.213526e-017
    outer loop
      vertex   -2.226363e+001 2.179006e+000 0.000000e+000
      vertex   -2.226363e+001 2.179006e+000 3.000000e+001
      vertex   -2.181566e+001 2.941867e+000 3.000000e+001
    endloop
  endfacet
  facet normal -8.141869e-001 5.806029e-001 5.156790e-017
    outer loop
      vertex   -2.181566e+001 2.941867e+000 0.000000e+000
      vertex   -2.181566e+001 2.941867e+000 3.000000e+001
      vertex   -2.130202e+001 3.662151e+000 3.000000e+001
    endloop
  endfacet
  facet normal -7.596871e-001 6.502888e-001 5.775725e-017
    outer loop
      vertex   -2.130202e+001 3.662151e+000 0.000000e+000
      vertex   -2.130202e+001 3.662151e+000 3.000000e+001
      vertex   -2.072673e+001 4.334221e+000 3.000000e+001
    endloop
  endfacet
  facet normal -6.992417e-001 7.148853e-001 0.000000e+000
    outer loop
      vertex   -2.072673e+001 4.334221e+000 0.000000e+000
      vertex   -2.072673e+001 4.334221e+000 3.000000e+001
      vertex   -2.009430e+001 4.952817e+000 3.000000e+001
    endloop
  endfacet
  facet normal -6.333238e-001 7.738869e-001 -7.500060e-017
    outer loop
      vertex   -2.009430e+001 4.952817e+000 0.000000e+000
      vertex   -2.009430e+001 4.952817e+000 3.000000e+001
      vertex   -1.940967e+001 5.513098e+000 3.000000e+001
    endloop
  endfacet
  facet normal -5.624493e-001 8.268318e-001 4.895828e-017
    outer loop
      vertex   -1.940967e+001 5.513098e+000 0.000000e+000
      vertex   -1.940967e+001 5.513098e+000 3.000000e+001
      vertex   -1.867820e+001 6.010678e+000 3.000000e+001
    endloop
  endfacet
  facet normal -4.871728e-001 8.733056e-001 5.171008e-017
    outer loop
      vertex   -1.867820e+001 6.010678e+000 0.000000e+000
      vertex   -1.867820e+001 6.010678e+000 3.000000e+001
      vertex   -1.790561e+001 6.441664e+000 3.000000e+001
    endloop
  endfacet
  facet normal -4.080836e-001 9.129446e-001 4.832681e-017
    outer loop
      vertex   -1.790561e+001 6.441664e+000 0.000000e+000
      vertex   -1.790561e+001 6.441664e+000 3.000000e+001
      vertex   -1.709796e+001 6.802682e+000 3.000000e+001
    endloop
  endfacet
  facet normal -3.258006e-001 9.454385e-001 0.000000e+000
    outer loop
      vertex   -1.709796e+001 6.802682e+000 0.000000e+000
      vertex   -1.709796e+001 6.802682e+000 3.000000e+001
      vertex   -1.626156e+001 7.090907e+000 3.000000e+001
    endloop
  endfacet
  facet normal -2.409677e-001 9.705331e-001 -2.853631e-017
    outer loop
      vertex   -1.626156e+001 7.090907e+000 0.000000e+000
      vertex   -1.626156e+001 7.090907e+000 3.000000e+001
      vertex   -1.540296e+001 7.304083e+000 3.000000e+001
    endloop
  endfacet
  facet normal -1.542489e-001 9.880320e-001 3.110313e-017
    outer loop
      vertex   -1.540296e+001 7.304083e+000 0.000000e+000
      vertex   -1.540296e+001 7.304083e+000 3.000000e+001
      vertex   -1.452888e+001 7.440542e+000 3.000000e+001
    endloop
  endfacet
  facet normal -6.632296e-002 9.977982e-001 0.000000e+000
    outer loop
      vertex   -1.452888e+001 7.440542e+000 0.000000e+000
      vertex   -1.452888e+001 7.440542e+000 3.000000e+001
      vertex   -1.364616e+001 7.499216e+000 3.000000e+001
    endloop
  endfacet
  facet normal 2.212209e-002 9.997553e-001 1.309891e-018
    outer loop
      vertex   -1.364616e+001 7.499216e+000 0.000000e+000
      vertex   -1.364616e+001 7.499216e+000 3.000000e+001
      vertex   -1.276171e+001 7.479645e+000 3.000000e+001
    endloop
  endfacet
  facet normal 1.103940e-001 9.938879e-001 1.307328e-017
    outer loop
      vertex   -1.276171e+001 7.479645e+000 0.000000e+000
      vertex   -1.276171e+001 7.479645e+000 3.000000e+001
      vertex   -1.188245e+001 7.381983e+000 3.000000e+001
    endloop
  endfacet
  facet normal 1.978019e-001 9.802420e-001 -6.923507e-017
    outer loop
      vertex   -1.188245e+001 7.381983e+000 0.000000e+000
      vertex   -1.188245e+001 7.381983e+000 3.000000e+001
      vertex   -1.101527e+001 7.206994e+000 3.000000e+001
    endloop
  endfacet
  facet normal 2.836618e-001 9.589244e-001 -0.000000e+000
    outer loop
      vertex   -1.101527e+001 7.206994e+000 0.000000e+000
      vertex   -1.101527e+001 7.206994e+000 3.000000e+001
      vertex   -1.016694e+001 6.956048e+000 3.000000e+001
    endloop
  endfacet
  facet normal 3.673016e-001 9.301019e-001 -3.332447e-017
    outer loop
      vertex   -1.016694e+001 6.956048e+000 0.000000e+000
      vertex   -1.016694e+001 6.956048e+000 3.000000e+001
      vertex   -9.344107e+000 6.631108e+000 3.000000e+001
    endloop
  endfacet
  facet normal 4.480668e-001 8.940001e-001 2.665721e-017
    outer loop
      vertex   -9.344107e+000 6.631108e+000 0.000000e+000
      vertex   -9.344107e+000 6.631108e+000 3.000000e+001
      vertex   -8.553214e+000 6.234719e+000 3.000000e+001
    endloop
  endfacet
  facet normal 5.253252e-001 8.509015e-001 -6.221101e-017
    outer loop
      vertex   -8.553214e+000 6.234719e+000 0.000000e+000
      vertex   -8.553214e+000 6.234719e+000 3.000000e+001
      vertex   -7.800450e+000 5.769981e+000 3.000000e+001
    endloop
  endfacet
  facet normal 5.984723e-001 8.011435e-001 -4.743722e-017
    outer loop
      vertex   -7.800450e+000 5.769981e+000 0.000000e+000
      vertex   -7.800450e+000 5.769981e+000 3.000000e+001
      vertex   -7.091705e+000 5.240532e+000 3.000000e+001
    endloop
  endfacet
  facet normal 6.669355e-001 7.451154e-001 3.254675e-017
    outer loop
      vertex   -7.091705e+000 5.240532e+000 0.000000e+000
      vertex   -7.091705e+000 5.240532e+000 3.000000e+001
      vertex   -6.432526e+000 4.650516e+000 3.000000e+001
    endloop
  endfacet
  facet normal 7.301791e-001 6.832558e-001 5.018132e-017
    outer loop
      vertex   -6.432526e+000 4.650516e+000 0.000000e+000
      vertex   -6.432526e+000 4.650516e+000 3.000000e+001
      vertex   -5.828072e+000 4.004551e+000 3.000000e+001
    endloop
  endfacet
  facet normal 7.877080e-001 6.160488e-001 -0.000000e+000
    outer loop
      vertex   -5.828072e+000 4.004551e+000 0.000000e+000
      vertex   -5.828072e+000 4.004551e+000 3.000000e+001
      vertex   -5.283074e+000 3.307692e+000 3.000000e+001
    endloop
  endfacet
  facet normal 8.390720e-001 5.440204e-001 1.747056e-017
    outer loop
      vertex   -5.283074e+000 3.307692e+000 0.000000e+000
      vertex   -5.283074e+000 3.307692e+000 3.000000e+001
      vertex   -4.801797e+000 2.565393e+000 3.000000e+001
    endloop
  endfacet
  facet normal 8.838691e-001 4.677343e-001 2.464013e-017
    outer loop
      vertex   -4.801797e+000 2.565393e+000 0.000000e+000
      vertex   -4.801797e+000 2.565393e+000 3.000000e+001
      vertex   -4.388008e+000 1.783463e+000 3.000000e+001
    endloop
  endfacet
  facet normal 9.217488e-001 3.877875e-001 2.296163e-017
    outer loop
      vertex   -4.388008e+000 1.783463e+000 0.000000e+000
      vertex   -4.388008e+000 1.783463e+000 3.000000e+001
      vertex   -4.044945e+000 9.680221e-001 3.000000e+001
    endloop
  endfacet
  facet normal 9.524145e-001 3.048058e-001 -2.256016e-017
    outer loop
      vertex   -4.044945e+000 9.680221e-001 0.000000e+000
      vertex   -4.044945e+000 9.680221e-001 3.000000e+001
      vertex   -3.775294e+000 1.254524e-001 3.000000e+001
    endloop
  endfacet
  facet normal 9.756263e-001 2.194385e-001 -2.273840e-017
    outer loop
      vertex   -3.775294e+000 1.254524e-001 0.000000e+000
      vertex   -3.775294e+000 1.254524e-001 3.000000e+001
      vertex   -3.581164e+000 -7.376520e-001 3.000000e+001
    endloop
  endfacet
  facet normal 9.912025e-001 1.323539e-001 3.126175e-017
    outer loop
      vertex   -3.581164e+000 -7.376520e-001 0.000000e+000
      vertex   -3.581164e+000 -7.376520e-001 3.000000e+001
      vertex   -3.464075e+000 -1.614536e+000 3.000000e+001
    endloop
  endfacet
  facet normal 9.990212e-001 4.423335e-002 -0.000000e+000
    outer loop
      vertex   -3.464075e+000 -1.614536e+000 0.000000e+000
      vertex   -3.464075e+000 -1.614536e+000 3.000000e+001
      vertex   -3.424943e+000 -2.498337e+000 3.000000e+001
    endloop
  endfacet
  facet normal 9.990212e-001 -4.423335e-002 0.000000e+000
    outer loop
      vertex   -3.424943e+000 -2.498337e+000 0.000000e+000
      vertex   -3.424943e+000 -2.498337e+000 3.000000e+001
      vertex   -3.464075e+000 -3.382138e+000 3.000000e+001
    endloop
  endfacet
  facet normal 9.912025e-001 -1.323539e-001 0.000000e+000
    outer loop
      vertex   -3.464075e+000 -3.382138e+000 0.000000e+000
      vertex   -3.464075e+000 -3.382138e+000 3.000000e+001
      vertex   -3.581164e+000 -4.259022e+000 3.000000e+001
    endloop
  endfacet
  facet normal 9.756263e-001 -2.194385e-001 -5.795203e-018
    outer loop
      vertex   -3.581164e+000 -4.259022e+000 0.000000e+000
      vertex   -3.581164e+000 -4.259022e+000 3.000000e+001
      vertex   -3.775294e+000 -5.122127e+000 3.000000e+001
    endloop
  endfacet
  facet normal 9.524145e-001 -3.048058e-001 2.707219e-017
    outer loop
      vertex   -3.775294e+000 -5.122127e+000 0.000000e+000
      vertex   -3.775294e+000 -5.122127e+000 3.000000e+001
      vertex   -4.044945e+000 -5.964696e+000 3.000000e+001
    endloop
  endfacet
  facet normal 9.217488e-001 -3.877875e-001 2.296163e-017
    outer loop
      vertex   -4.044945e+000 -5.964696e+000 0.000000e+000
      vertex   -4.044945e+000 -5.964696e+000 3.000000e+001
      vertex   -4.388008e+000 -6.780137e+000 3.000000e+001
    endloop
  endfacet
  facet normal 8.838691e-001 -4.677343e-001 -2.769543e-017
    outer loop
      vertex   -4.388008e+000 -6.780137e+000 0.000000e+000
      vertex   -4.388008e+000 -6.780137e+000 3.000000e+001
      vertex   -4.801797e+000 -7.562067e+000 3.000000e+001
    endloop
  endfacet
  facet normal 8.390720e-001 -5.440204e-001 -1.747056e-017
    outer loop
      vertex   -4.801797e+000 -7.562067e+000 0.000000e+000
      vertex   -4.801797e+000 -7.562067e+000 3.000000e+001
      vertex   -5.283074e+000 -8.304366e+000 3.000000e+001
    endloop
  endfacet
  facet normal 7.877080e-001 -6.160488e-001 -1.016426e-017
    outer loop
      vertex   -5.283074e+000 -8.304366e+000 0.000000e+000
      vertex   -5.283074e+000 -8.304366e+000 3.000000e+001
      vertex   -5.828072e+000 -9.001225e+000 3.000000e+001
    endloop
  endfacet
  facet normal 7.301791e-001 -6.832558e-001 0.000000e+000
    outer loop
      vertex   -5.828072e+000 -9.001225e+000 0.000000e+000
      vertex   -5.828072e+000 -9.001225e+000 3.000000e+001
      vertex   -6.432526e+000 -9.647190e+000 3.000000e+001
    endloop
  endfacet
  facet normal 6.669355e-001 -7.451154e-001 -4.997742e-017
    outer loop
      vertex   -6.432526e+000 -9.647190e+000 0.000000e+000
      vertex   -6.432526e+000 -9.647190e+000 3.000000e+001
      vertex   -7.091705e+000 -1.023721e+001 3.000000e+001
    endloop
  endfacet
  facet normal 5.984723e-001 -8.011435e-001 6.282749e-018
    outer loop
      vertex   -7.091705e+000 -1.023721e+001 0.000000e+000
      vertex   -7.091705e+000 -1.023721e+001 3.000000e+001
      vertex   -7.800450e+000 -1.076665e+001 3.000000e+001
    endloop
  endfacet
  facet normal 5.253252e-001 -8.509015e-001 5.038349e-017
    outer loop
      vertex   -7.800450e+000 -1.076665e+001 0.000000e+000
      vertex   -7.800450e+000 -1.076665e+001 3.000000e+001
      vertex   -8.553214e+000 -1.123139e+001 3.000000e+001
    endloop
  endfacet
  facet normal 4.480668e-001 -8.940001e-001 5.306177e-017
    outer loop
      vertex   -8.553214e+000 -1.123139e+001 0.000000e+000
      vertex   -8.553214e+000 -1.123139e+001 3.000000e+001
      vertex   -9.344107e+000 -1.162778e+001 3.000000e+001
    endloop
  endfacet
  facet normal 3.673016e-001 -9.301019e-001 -1.017278e-017
    outer loop
      vertex   -9.344107e+000 -1.162778e+001 0.000000e+000
      vertex   -9.344107e+000 -1.162778e+001 3.000000e+001
      vertex   -1.016694e+001 -1.195272e+001 3.000000e+001
    endloop
  endfacet
  facet normal 2.836618e-001 -9.589244e-001 3.998358e-017
    outer loop
      vertex   -1.016694e+001 -1.195272e+001 0.000000e+000
      vertex   -1.016694e+001 -1.195272e+001 3.000000e+001
      vertex   -1.101527e+001 -1.220367e+001 3.000000e+001
    endloop
  endfacet
  facet normal 1.978019e-001 -9.802420e-001 0.000000e+000
    outer loop
      vertex   -1.101527e+001 -1.220367e+001 0.000000e+000
      vertex   -1.101527e+001 -1.220367e+001 3.000000e+001
      vertex   -1.188245e+001 -1.237866e+001 3.000000e+001
    endloop
  endfacet
  facet normal 1.103940e-001 -9.938879e-001 9.155342e-017
    outer loop
      vertex   -1.188245e+001 -1.237866e+001 0.000000e+000
      vertex   -1.188245e+001 -1.237866e+001 3.000000e+001
      vertex   -1.276171e+001 -1.247632e+001 3.000000e+001
    endloop
  endfacet
  facet normal 2.212209e-002 -9.997553e-001 -2.619781e-018
    outer loop
      vertex   -1.276171e+001 -1.247632e+001 0.000000e+000
      vertex   -1.276171e+001 -1.247632e+001 3.000000e+001
      vertex   -1.364616e+001 -1.249589e+001 3.000000e+001
    endloop
  endfacet
  facet normal -6.632296e-002 -9.977982e-001 3.927108e-018
    outer loop
      vertex   -1.364616e+001 -1.249589e+001 0.000000e+000
      vertex   -1.364616e+001 -1.249589e+001 3.000000e+001
      vertex   -1.452888e+001 -1.243722e+001 3.000000e+001
    endloop
  endfacet
  facet normal -1.542489e-001 -9.880320e-001 0.000000e+000
    outer loop
      vertex   -1.452888e+001 -1.243722e+001 0.000000e+000
      vertex   -1.452888e+001 -1.243722e+001 3.000000e+001
      vertex   -1.540296e+001 -1.230076e+001 3.000000e+001
    endloop
  endfacet
  facet normal -2.409677e-001 -9.705331e-001 -1.466264e-017
    outer loop
      vertex   -1.540296e+001 -1.230076e+001 0.000000e+000
      vertex   -1.540296e+001 -1.230076e+001 3.000000e+001
      vertex   -1.626156e+001 -1.208758e+001 3.000000e+001
    endloop
  endfacet
  facet normal -3.258006e-001 -9.454385e-001 3.858254e-017
    outer loop
      vertex   -1.626156e+001 -1.208758e+001 0.000000e+000
      vertex   -1.626156e+001 -1.208758e+001 3.000000e+001
      vertex   -1.709796e+001 -1.179936e+001 3.000000e+001
    endloop
  endfacet
  facet normal -4.080836e-001 -9.129446e-001 0.000000e+000
    outer loop
      vertex   -1.709796e+001 -1.179936e+001 0.000000e+000
      vertex   -1.709796e+001 -1.179936e+001 3.000000e+001
      vertex   -1.790561e+001 -1.143834e+001 3.000000e+001
    endloop
  endfacet
  facet normal -4.871728e-001 -8.733056e-001 -5.769285e-017
    outer loop
      vertex   -1.790561e+001 -1.143834e+001 0.000000e+000
      vertex   -1.790561e+001 -1.143834e+001 3.000000e+001
      vertex   -1.867820e+001 -1.100735e+001 3.000000e+001
    endloop
  endfacet
  facet normal -5.624493e-001 -8.268318e-001 -4.895828e-017
    outer loop
      vertex   -1.867820e+001 -1.100735e+001 0.000000e+000
      vertex   -1.867820e+001 -1.100735e+001 3.000000e+001
      vertex   -1.940967e+001 -1.050977e+001 3.000000e+001
    endloop
  endfacet
  facet normal -6.333238e-001 -7.738869e-001 -4.582331e-017
    outer loop
      vertex   -1.940967e+001 -1.050977e+001 0.000000e+000
      vertex   -1.940967e+001 -1.050977e+001 3.000000e+001
      vertex   -2.009430e+001 -9.949491e+000 3.000000e+001
    endloop
  endfacet
  facet normal -6.992417e-001 -7.148853e-001 8.280685e-017
    outer loop
      vertex   -2.009430e+001 -9.949491e+000 0.000000e+000
      vertex   -2.009430e+001 -9.949491e+000 3.000000e+001
      vertex   -2.072673e+001 -9.330895e+000 3.000000e+001
    endloop
  endfacet
  facet normal -7.596871e-001 -6.502888e-001 0.000000e+000
    outer loop
      vertex   -2.072673e+001 -9.330895e+000 0.000000e+000
      vertex   -2.072673e+001 -9.330895e+000 3.000000e+001
      vertex   -2.130202e+001 -8.658825e+000 3.000000e+001
    endloop
  endfacet
  facet normal -8.141869e-001 -5.806029e-001 -6.875719e-017
    outer loop
      vertex   -2.130202e+001 -8.658825e+000 0.000000e+000
      vertex   -2.130202e+001 -8.658825e+000 3.000000e+001
      vertex   -2.181566e+001 -7.938541e+000 3.000000e+001
    endloop
  endfacet
  facet normal -8.623146e-001 -5.063730e-001 -4.497495e-017
    outer loop
      vertex   -2.181566e+001 -7.938541e+000 0.000000e+000
      vertex   -2.181566e+001 -7.938541e+000 3.000000e+001
      vertex   -2.226363e+001 -7.175680e+000 3.000000e+001
    endloop
  endfacet
  facet normal -9.036935e-001 -4.281800e-001 8.166546e-017
    outer loop
      vertex   -2.226363e+001 -7.175680e+000 0.000000e+000
      vertex   -2.226363e+001 -7.175680e+000 3.000000e+001
      vertex   -2.264243e+001 -6.376212e+000 3.000000e+001
    endloop
  endfacet
  facet normal -9.379998e-001 -3.466359e-001 2.898161e-017
    outer loop
      vertex   -2.264243e+001 -6.376212e+000 0.000000e+000
      vertex   -2.264243e+001 -6.376212e+000 3.000000e+001
      vertex   -2.294909e+001 -5.546395e+000 3.000000e+001
    endloop
  endfacet
  facet normal -9.649649e-001 -2.623790e-001 -1.553595e-017
    outer loop
      vertex   -2.294909e+001 -5.546395e+000 0.000000e+000
      vertex   -2.294909e+001 -5.546395e+000 3.000000e+001
      vertex   -2.318121e+001 -4.692722e+000 3.000000e+001
    endloop
  endfacet
  facet normal -9.843779e-001 -1.760685e-001 -1.042535e-017
    outer loop
      vertex   -2.318121e+001 -4.692722e+000 0.000000e+000
      vertex   -2.318121e+001 -4.692722e+000 3.000000e+001
      vertex   -2.333697e+001 -3.821876e+000 3.000000e+001
    endloop
  endfacet
  facet normal -9.960868e-001 -8.838010e-002 -6.541442e-018
    outer loop
      vertex   -2.333697e+001 -3.821876e+000 0.000000e+000
      vertex   -2.333697e+001 -3.821876e+000 3.000000e+001
      vertex   -2.341516e+001 -2.940671e+000 3.000000e+001
    endloop
  endfacet
  facet normal -9.960868e-001 -8.838010e-002 -7.843510e-018
    outer loop
      vertex   -2.341516e+001 -2.940671e+000 0.000000e+000
      vertex   -2.333697e+001 -3.821876e+000 0.000000e+000
      vertex   -2.341516e+001 -2.940671e+000 3.000000e+001
    endloop
  endfacet
  facet normal 9.990212e-001 4.423335e-002 0.000000e+000
    outer loop
      vertex   -3.424943e+000 -2.498337e+000 0.000000e+000
      vertex   -3.464075e+000 -1.614536e+000 0.000000e+000
      vertex   -3.424943e+000 -2.498337e+000 3.000000e+001
    endloop
  endfacet
  facet normal 9.912025e-001 1.323539e-001 0.000000e+000
    outer loop
      vertex   -3.464075e+000 -1.614536e+000 0.000000e+000
      vertex   -3.581164e+000 -7.376520e-001 0.000000e+000
      vertex   -3.464075e+000 -1.614536e+000 3.000000e+001
    endloop
  endfacet
  facet normal 9.756263e-001 2.194385e-001 1.254962e-017
    outer loop
      vertex   -3.581164e+000 -7.376520e-001 0.000000e+000
      vertex   -3.775294e+000 1.254524e-001 0.000000e+000
      vertex   -3.581164e+000 -7.376520e-001 3.000000e+001
    endloop
  endfacet
  facet normal 9.524145e-001 3.048058e-001 -3.137404e-017
    outer loop
      vertex   -3.775294e+000 1.254524e-001 0.000000e+000
      vertex   -4.044945e+000 9.680221e-001 0.000000e+000
      vertex   -3.775294e+000 1.254524e-001 3.000000e+001
    endloop
  endfacet
  facet normal 9.217488e-001 3.877875e-001 -2.928244e-017
    outer loop
      vertex   -4.044945e+000 9.680221e-001 0.000000e+000
      vertex   -4.388008e+000 1.783463e+000 0.000000e+000
      vertex   -4.044945e+000 9.680221e-001 3.000000e+001
    endloop
  endfacet
  facet normal 8.838691e-001 4.677343e-001 2.719083e-017
    outer loop
      vertex   -4.388008e+000 1.783463e+000 0.000000e+000
      vertex   -4.801797e+000 2.565393e+000 0.000000e+000
      vertex   -4.388008e+000 1.783463e+000 3.000000e+001
    endloop
  endfacet
  facet normal 8.390720e-001 5.440204e-001 1.673282e-017
    outer loop
      vertex   -4.801797e+000 2.565393e+000 0.000000e+000
      vertex   -5.283074e+000 3.307692e+000 0.000000e+000
      vertex   -4.801797e+000 2.565393e+000 3.000000e+001
    endloop
  endfacet
  facet normal 7.877080e-001 6.160488e-001 1.045801e-017
    outer loop
      vertex   -5.283074e+000 3.307692e+000 0.000000e+000
      vertex   -5.828072e+000 4.004551e+000 0.000000e+000
      vertex   -5.283074e+000 3.307692e+000 3.000000e+001
    endloop
  endfacet
  facet normal 7.301791e-001 6.832558e-001 0.000000e+000
    outer loop
      vertex   -5.828072e+000 4.004551e+000 0.000000e+000
      vertex   -6.432526e+000 4.650516e+000 0.000000e+000
      vertex   -5.828072e+000 4.004551e+000 3.000000e+001
    endloop
  endfacet
  facet normal 6.669355e-001 7.451154e-001 2.719083e-017
    outer loop
      vertex   -6.432526e+000 4.650516e+000 0.000000e+000
      vertex   -7.091705e+000 5.240532e+000 0.000000e+000
      vertex   -6.432526e+000 4.650516e+000 3.000000e+001
    endloop
  endfacet
  facet normal 5.984723e-001 8.011435e-001 1.673282e-017
    outer loop
      vertex   -7.091705e+000 5.240532e+000 0.000000e+000
      vertex   -7.800450e+000 5.769981e+000 0.000000e+000
      vertex   -7.091705e+000 5.240532e+000 3.000000e+001
    endloop
  endfacet
  facet normal 5.253252e-001 8.509015e-001 -5.019846e-017
    outer loop
      vertex   -7.800450e+000 5.769981e+000 0.000000e+000
      vertex   -8.553214e+000 6.234719e+000 0.000000e+000
      vertex   -7.800450e+000 5.769981e+000 3.000000e+001
    endloop
  endfacet
  facet normal 4.480668e-001 8.940001e-001 -5.229007e-017
    outer loop
      vertex   -8.553214e+000 6.234719e+000 0.000000e+000
      vertex   -9.344107e+000 6.631108e+000 0.000000e+000
      vertex   -8.553214e+000 6.234719e+000 3.000000e+001
    endloop
  endfacet
  facet normal 3.673016e-001 9.301019e-001 1.045801e-017
    outer loop
      vertex   -9.344107e+000 6.631108e+000 0.000000e+000
      vertex   -1.016694e+001 6.956048e+000 0.000000e+000
      vertex   -9.344107e+000 6.631108e+000 3.000000e+001
    endloop
  endfacet
  facet normal 2.836618e-001 9.589244e-001 -3.974045e-017
    outer loop
      vertex   -1.016694e+001 6.956048e+000 0.000000e+000
      vertex   -1.101527e+001 7.206994e+000 0.000000e+000
      vertex   -1.016694e+001 6.956048e+000 3.000000e+001
    endloop
  endfacet
  facet normal 1.978019e-001 9.802420e-001 0.000000e+000
    outer loop
      vertex   -1.101527e+001 7.206994e+000 0.000000e+000
      vertex   -1.188245e+001 7.381983e+000 0.000000e+000
      vertex   -1.101527e+001 7.206994e+000 3.000000e+001
    endloop
  endfacet
  facet normal 1.103940e-001 9.938879e-001 -9.150762e-017
    outer loop
      vertex   -1.188245e+001 7.381983e+000 0.000000e+000
      vertex   -1.276171e+001 7.479645e+000 0.000000e+000
      vertex   -1.188245e+001 7.381983e+000 3.000000e+001
    endloop
  endfacet
  facet normal 2.212209e-002 9.997553e-001 2.614503e-018
    outer loop
      vertex   -1.276171e+001 7.479645e+000 0.000000e+000
      vertex   -1.364616e+001 7.499216e+000 0.000000e+000
      vertex   -1.276171e+001 7.479645e+000 3.000000e+001
    endloop
  endfacet
  facet normal -6.632296e-002 9.977982e-001 -3.921755e-018
    outer loop
      vertex   -1.364616e+001 7.499216e+000 0.000000e+000
      vertex   -1.452888e+001 7.440542e+000 0.000000e+000
      vertex   -1.364616e+001 7.499216e+000 3.000000e+001
    endloop
  endfacet
  facet normal -1.542489e-001 9.880320e-001 0.000000e+000
    outer loop
      vertex   -1.452888e+001 7.440542e+000 0.000000e+000
      vertex   -1.540296e+001 7.304083e+000 0.000000e+000
      vertex   -1.452888e+001 7.440542e+000 3.000000e+001
    endloop
  endfacet
  facet normal -2.409677e-001 9.705331e-001 1.464122e-017
    outer loop
      vertex   -1.540296e+001 7.304083e+000 0.000000e+000
      vertex   -1.626156e+001 7.090907e+000 0.000000e+000
      vertex   -1.540296e+001 7.304083e+000 3.000000e+001
    endloop
  endfacet
  facet normal -3.258006e-001 9.454385e-001 -3.869465e-017
    outer loop
      vertex   -1.626156e+001 7.090907e+000 0.000000e+000
      vertex   -1.709796e+001 6.802682e+000 0.000000e+000
      vertex   -1.626156e+001 7.090907e+000 3.000000e+001
    endloop
  endfacet
  facet normal -4.080836e-001 9.129446e-001 0.000000e+000
    outer loop
      vertex   -1.709796e+001 6.802682e+000 0.000000e+000
      vertex   -1.790561e+001 6.441664e+000 0.000000e+000
      vertex   -1.709796e+001 6.802682e+000 3.000000e+001
    endloop
  endfacet
  facet normal -4.871728e-001 8.733056e-001 5.647327e-017
    outer loop
      vertex   -1.790561e+001 6.441664e+000 0.000000e+000
      vertex   -1.867820e+001 6.010678e+000 0.000000e+000
      vertex   -1.790561e+001 6.441664e+000 3.000000e+001
    endloop
  endfacet
  facet normal -5.624493e-001 8.268318e-001 4.810686e-017
    outer loop
      vertex   -1.867820e+001 6.010678e+000 0.000000e+000
      vertex   -1.940967e+001 5.513098e+000 0.000000e+000
      vertex   -1.867820e+001 6.010678e+000 3.000000e+001
    endloop
  endfacet
  facet normal -6.333238e-001 7.738869e-001 4.601526e-017
    outer loop
      vertex   -1.940967e+001 5.513098e+000 0.000000e+000
      vertex   -2.009430e+001 4.952817e+000 0.000000e+000
      vertex   -1.940967e+001 5.513098e+000 3.000000e+001
    endloop
  endfacet
  facet normal -6.992417e-001 7.148853e-001 -8.157250e-017
    outer loop
      vertex   -2.009430e+001 4.952817e+000 0.000000e+000
      vertex   -2.072673e+001 4.334221e+000 0.000000e+000
      vertex   -2.009430e+001 4.952817e+000 3.000000e+001
    endloop
  endfacet
  facet normal -7.596871e-001 6.502888e-001 0.000000e+000
    outer loop
      vertex   -2.072673e+001 4.334221e+000 0.000000e+000
      vertex   -2.130202e+001 3.662151e+000 0.000000e+000
      vertex   -2.072673e+001 4.334221e+000 3.000000e+001
    endloop
  endfacet
  facet normal -8.141869e-001 5.806029e-001 5.019846e-017
    outer loop
      vertex   -2.130202e+001 3.662151e+000 0.000000e+000
      vertex   -2.181566e+001 2.941867e+000 0.000000e+000
      vertex   -2.130202e+001 3.662151e+000 3.000000e+001
    endloop
  endfacet
  facet normal -8.623146e-001 5.063730e-001 4.601526e-017
    outer loop
      vertex   -2.181566e+001 2.941867e+000 0.000000e+000
      vertex   -2.226363e+001 2.179006e+000 0.000000e+000
      vertex   -2.181566e+001 2.941867e+000 3.000000e+001
    endloop
  endfacet
  facet normal -9.036935e-001 4.281800e-001 -8.157250e-017
    outer loop
      vertex   -2.226363e+001 2.179006e+000 0.000000e+000
      vertex   -2.264243e+001 1.379538e+000 0.000000e+000
      vertex   -2.226363e+001 2.179006e+000 3.000000e+001
    endloop
  endfacet
  facet normal -9.379998e-001 3.466359e-001 -2.719083e-017
    outer loop
      vertex   -2.264243e+001 1.379538e+000 0.000000e+000
      vertex   -2.294909e+001 5.497206e-001 0.000000e+000
      vertex   -2.264243e+001 1.379538e+000 3.000000e+001
    endloop
  endfacet
  facet normal -9.649649e-001 2.623790e-001 1.568702e-017
    outer loop
      vertex   -2.294909e+001 5.497206e-001 0.000000e+000
      vertex   -2.318121e+001 -3.039520e-001 0.000000e+000
      vertex   -2.294909e+001 5.497206e-001 3.000000e+001
    endloop
  endfacet
  facet normal -9.843779e-001 1.760685e-001 1.359542e-017
    outer loop
      vertex   -2.318121e+001 -3.039520e-001 0.000000e+000
      vertex   -2.333697e+001 -1.174799e+000 0.000000e+000
      vertex   -2.318121e+001 -3.039520e-001 3.000000e+001
    endloop
  endfacet
  facet normal -9.960868e-001 8.838010e-002 6.797709e-018
    outer loop
      vertex   -2.333697e+001 -1.174799e+000 0.000000e+000
      vertex   -2.341516e+001 -2.056004e+000 0.000000e+000
      vertex   -2.333697e+001 -1.174799e+000 3.000000e+001
    endloop
  endfacet
  facet normal -9.843779e-001 -1.760685e-001 -1.359542e-017
    outer loop
      vertex   -2.333697e+001 -3.821876e+000 0.000000e+000
      vertex   -2.318121e+001 -4.692722e+000 0.000000e+000
      vertex   -2.333697e+001 -3.821876e+000 3.000000e+001
    endloop
  endfacet
  facet normal -9.649649e-001 -2.623790e-001 -1.568702e-017
    outer loop
      vertex   -2.318121e+001 -4.692722e+000 0.000000e+000
      vertex   -2.294909e+001 -5.546395e+000 0.000000e+000
      vertex   -2.318121e+001 -4.692722e+000 3.000000e+001
    endloop
  endfacet
  facet normal -9.379998e-001 -3.466359e-001 -2.091603e-017
    outer loop
      vertex   -2.294909e+001 -5.546395e+000 0.000000e+000
      vertex   -2.264243e+001 -6.376212e+000 0.000000e+000
      vertex   -2.294909e+001 -5.546395e+000 3.000000e+001
    endloop
  endfacet
  facet normal -9.036935e-001 -4.281800e-001 6.274808e-018
    outer loop
      vertex   -2.264243e+001 -6.376212e+000 0.000000e+000
      vertex   -2.226363e+001 -7.175680e+000 0.000000e+000
      vertex   -2.264243e+001 -6.376212e+000 3.000000e+001
    endloop
  endfacet
  facet normal -8.623146e-001 -5.063730e-001 7.111449e-017
    outer loop
      vertex   -2.226363e+001 -7.175680e+000 0.000000e+000
      vertex   -2.181566e+001 -7.938541e+000 0.000000e+000
      vertex   -2.226363e+001 -7.175680e+000 3.000000e+001
    endloop
  endfacet
  facet normal -8.141869e-001 -5.806029e-001 -5.019846e-017
    outer loop
      vertex   -2.181566e+001 -7.938541e+000 0.000000e+000
      vertex   -2.130202e+001 -8.658825e+000 0.000000e+000
      vertex   -2.181566e+001 -7.938541e+000 3.000000e+001
    endloop
  endfacet
  facet normal -7.596871e-001 -6.502888e-001 -7.738930e-017
    outer loop
      vertex   -2.130202e+001 -8.658825e+000 0.000000e+000
      vertex   -2.072673e+001 -9.330895e+000 0.000000e+000
      vertex   -2.130202e+001 -8.658825e+000 3.000000e+001
    endloop
  endfacet
  facet normal -6.992417e-001 -7.148853e-001 0.000000e+000
    outer loop
      vertex   -2.072673e+001 -9.330895e+000 0.000000e+000
      vertex   -2.009430e+001 -9.949491e+000 0.000000e+000
      vertex   -2.072673e+001 -9.330895e+000 3.000000e+001
    endloop
  endfacet
  facet normal -6.333238e-001 -7.738869e-001 7.529770e-017
    outer loop
      vertex   -2.009430e+001 -9.949491e+000 0.000000e+000
      vertex   -1.940967e+001 -1.050977e+001 0.000000e+000
      vertex   -2.009430e+001 -9.949491e+000 3.000000e+001
    endloop
  endfacet
  facet normal -5.624493e-001 -8.268318e-001 -4.810686e-017
    outer loop
      vertex   -1.940967e+001 -1.050977e+001 0.000000e+000
      vertex   -1.867820e+001 -1.100735e+001 0.000000e+000
      vertex   -1.940967e+001 -1.050977e+001 3.000000e+001
    endloop
  endfacet
  facet normal -4.871728e-001 -8.733056e-001 -5.229007e-017
    outer loop
      vertex   -1.867820e+001 -1.100735e+001 0.000000e+000
      vertex   -1.790561e+001 -1.143834e+001 0.000000e+000
      vertex   -1.867820e+001 -1.100735e+001 3.000000e+001
    endloop
  endfacet
  facet normal -4.080836e-001 -9.129446e-001 -4.810686e-017
    outer loop
      vertex   -1.790561e+001 -1.143834e+001 0.000000e+000
      vertex   -1.709796e+001 -1.179936e+001 0.000000e+000
      vertex   -1.790561e+001 -1.143834e+001 3.000000e+001
    endloop
  endfacet
  facet normal -3.258006e-001 -9.454385e-001 0.000000e+000
    outer loop
      vertex   -1.709796e+001 -1.179936e+001 0.000000e+000
      vertex   -1.626156e+001 -1.208758e+001 0.000000e+000
      vertex   -1.709796e+001 -1.179936e+001 3.000000e+001
    endloop
  endfacet
  facet normal -2.409677e-001 -9.705331e-001 2.928244e-017
    outer loop
      vertex   -1.626156e+001 -1.208758e+001 0.000000e+000
      vertex   -1.540296e+001 -1.230076e+001 0.000000e+000
      vertex   -1.626156e+001 -1.208758e+001 3.000000e+001
    endloop
  endfacet
  facet normal -1.542489e-001 -9.880320e-001 -3.137404e-017
    outer loop
      vertex   -1.540296e+001 -1.230076e+001 0.000000e+000
      vertex   -1.452888e+001 -1.243722e+001 0.000000e+000
      vertex   -1.540296e+001 -1.230076e+001 3.000000e+001
    endloop
  endfacet
  facet normal -6.632296e-002 -9.977982e-001 0.000000e+000
    outer loop
      vertex   -1.452888e+001 -1.243722e+001 0.000000e+000
      vertex   -1.364616e+001 -1.249589e+001 0.000000e+000
      vertex   -1.452888e+001 -1.243722e+001 3.000000e+001
    endloop
  endfacet
  facet normal 2.212209e-002 -9.997553e-001 -1.307252e-018
    outer loop
      vertex   -1.364616e+001 -1.249589e+001 0.000000e+000
      vertex   -1.276171e+001 -1.247632e+001 0.000000e+000
      vertex   -1.364616e+001 -1.249589e+001 3.000000e+001
    endloop
  endfacet
  facet normal 1.103940e-001 -9.938879e-001 -1.307252e-017
    outer loop
      vertex   -1.276171e+001 -1.247632e+001 0.000000e+000
      vertex   -1.188245e+001 -1.237866e+001 0.000000e+000
      vertex   -1.276171e+001 -1.247632e+001 3.000000e+001
    endloop
  endfacet
  facet normal 1.978019e-001 -9.802420e-001 6.902289e-017
    outer loop
      vertex   -1.188245e+001 -1.237866e+001 0.000000e+000
      vertex   -1.101527e+001 -1.220367e+001 0.000000e+000
      vertex   -1.188245e+001 -1.237866e+001 3.000000e+001
    endloop
  endfacet
  facet normal 2.836618e-001 -9.589244e-001 0.000000e+000
    outer loop
      vertex   -1.101527e+001 -1.220367e+001 0.000000e+000
      vertex   -1.016694e+001 -1.195272e+001 0.000000e+000
      vertex   -1.101527e+001 -1.220367e+001 3.000000e+001
    endloop
  endfacet
  facet normal 3.673016e-001 -9.301019e-001 3.346564e-017
    outer loop
      vertex   -1.016694e+001 -1.195272e+001 0.000000e+000
      vertex   -9.344107e+000 -1.162778e+001 0.000000e+000
      vertex   -1.016694e+001 -1.195272e+001 3.000000e+001
    endloop
  endfacet
  facet normal 4.480668e-001 -8.940001e-001 -2.719083e-017
    outer loop
      vertex   -9.344107e+000 -1.162778e+001 0.000000e+000
      vertex   -8.553214e+000 -1.123139e+001 0.000000e+000
      vertex   -9.344107e+000 -1.162778e+001 3.000000e+001
    endloop
  endfacet
  facet normal 5.253252e-001 -8.509015e-001 6.274808e-017
    outer loop
      vertex   -8.553214e+000 -1.123139e+001 0.000000e+000
      vertex   -7.800450e+000 -1.076665e+001 0.000000e+000
      vertex   -8.553214e+000 -1.123139e+001 3.000000e+001
    endloop
  endfacet
  facet normal 5.984723e-001 -8.011435e-001 4.810686e-017
    outer loop
      vertex   -7.800450e+000 -1.076665e+001 0.000000e+000
      vertex   -7.091705e+000 -1.023721e+001 0.000000e+000
      vertex   -7.800450e+000 -1.076665e+001 3.000000e+001
    endloop
  endfacet
  facet normal 6.669355e-001 -7.451154e-001 -1.045801e-017
    outer loop
      vertex   -7.091705e+000 -1.023721e+001 0.000000e+000
      vertex   -6.432526e+000 -9.647190e+000 0.000000e+000
      vertex   -7.091705e+000 -1.023721e+001 3.000000e+001
    endloop
  endfacet
  facet normal 7.301791e-001 -6.832558e-001 -7.111449e-017
    outer loop
      vertex   -6.432526e+000 -9.647190e+000 0.000000e+000
      vertex   -5.828072e+000 -9.001225e+000 0.000000e+000
      vertex   -6.432526e+000 -9.647190e+000 3.000000e+001
    endloop
  endfacet
  facet normal 7.877080e-001 -6.160488e-001 0.000000e+000
    outer loop
      vertex   -5.828072e+000 -9.001225e+000 0.000000e+000
      vertex   -5.283074e+000 -8.304366e+000 0.000000e+000
      vertex   -5.828072e+000 -9.001225e+000 3.000000e+001
    endloop
  endfacet
  facet normal 8.390720e-001 -5.440204e-001 -1.673282e-017
    outer loop
      vertex   -5.283074e+000 -8.304366e+000 0.000000e+000
      vertex   -4.801797e+000 -7.562067e+000 0.000000e+000
      vertex   -5.283074e+000 -8.304366e+000 3.000000e+001
    endloop
  endfacet
  facet normal 8.838691e-001 -4.677343e-001 -2.300763e-017
    outer loop
      vertex   -4.801797e+000 -7.562067e+000 0.000000e+000
      vertex   -4.388008e+000 -6.780137e+000 0.000000e+000
      vertex   -4.801797e+000 -7.562067e+000 3.000000e+001
    endloop
  endfacet
  facet normal 9.217488e-001 -3.877875e-001 -2.300763e-017
    outer loop
      vertex   -4.388008e+000 -6.780137e+000 0.000000e+000
      vertex   -4.044945e+000 -5.964696e+000 0.000000e+000
      vertex   -4.388008e+000 -6.780137e+000 3.000000e+001
    endloop
  endfacet
  facet normal 9.524145e-001 -3.048058e-001 1.777862e-017
    outer loop
      vertex   -4.044945e+000 -5.964696e+000 0.000000e+000
      vertex   -3.775294e+000 -5.122127e+000 0.000000e+000
      vertex   -4.044945e+000 -5.964696e+000 3.000000e+001
    endloop
  endfacet
  facet normal 9.756263e-001 -2.194385e-001 1.987023e-017
    outer loop
      vertex   -3.775294e+000 -5.122127e+000 0.000000e+000
      vertex   -3.581164e+000 -4.259022e+000 0.000000e+000
      vertex   -3.775294e+000 -5.122127e+000 3.000000e+001
    endloop
  endfacet
  facet normal 9.912025e-001 -1.323539e-001 -2.719083e-017
    outer loop
      vertex   -3.581164e+000 -4.259022e+000 0.000000e+000
      vertex   -3.464075e+000 -3.382138e+000 0.000000e+000
      vertex   -3.581164e+000 -4.259022e+000 3.000000e+001
    endloop
  endfacet
  facet normal 9.990212e-001 -4.423335e-002 0.000000e+000
    outer loop
      vertex   -3.464075e+000 -3.382138e+000 0.000000e+000
      vertex   -3.424943e+000 -2.498337e+000 0.000000e+000
      vertex   -3.464075e+000 -3.382138e+000 3.000000e+001
    endloop
  endfacet
  facet normal 0.000000e+000 0.000000e+000 1.000000e+000
    outer loop
      vertex   -1.276171e+001 7.479645e+000 3.000000e+001
      vertex   -1.452888e+001 7.440542e+000 3.000000e+001
      vertex   -1.188245e+001 7.381983e+000 3.000000e+001
    endloop
  endfacet
  facet normal 0.000000e+000 0.000000e+000 1.000000e+000
    outer loop
      vertex   -1.276171e+001 7.479645e+000 3.000000e+001
      vertex   -1.364616e+001 7.499216e+000 3.000000e+001
      vertex   -1.452888e+001 7.440542e+000 3.000000e+001
    endloop
  endfacet
  facet normal 0.000000e+000 0.000000e+000 1.000000e+000
    outer loop
      vertex   -1.188245e+001 7.381983e+000 3.000000e+001
      vertex   -1.540296e+001 7.304083e+000 3.000000e+001
      vertex   -1.101527e+001 7.206994e+000 3.000000e+001
    endloop
  endfacet
  facet normal 0.000000e+000 0.000000e+000 1.000000e+000
    outer loop
      vertex   -1.188245e+001 7.381983e+000 3.000000e+001
      vertex   -1.452888e+001 7.440542e+000 3.000000e+001
      vertex   -1.540296e+001 7.304083e+000 3.000000e+001
    endloop
  endfacet
  facet normal 0.000000e+000 0.000000e+000 1.000000e+000
    outer loop
      vertex   -1.101527e+001 7.206994e+000 3.000000e+001
      vertex   -1.626156e+001 7.090907e+000 3.000000e+001
      vertex   -1.016694e+001 6.956048e+000 3.000000e+001
    endloop
  endfacet
  facet normal 0.000000e+000 0.000000e+000 1.000000e+000
    outer loop
      vertex   -1.101527e+001 7.206994e+000 3.000000e+001
      vertex   -1.540296e+001 7.304083e+000 3.000000e+001
      vertex   -1.626156e+001 7.090907e+000 3.000000e+001
    endloop
  endfacet
  facet normal 0.000000e+000 0.000000e+000 1.000000e+000
    outer loop
      vertex   -1.016694e+001 6.956048e+000 3.000000e+001
      vertex   -1.709796e+001 6.802682e+000 3.000000e+001
      vertex   -9.344107e+000 6.631108e+000 3.000000e+001
    endloop
  endfacet
  facet normal 0.000000e+000 0.000000e+000 1.000000e+000
    outer loop
      vertex   -1.016694e+001 6.956048e+000 3.000000e+001
      vertex   -1.626156e+001 7.090907e+000 3.000000e+001
      vertex   -1.709796e+001 6.802682e+000 3.000000e+001
    endloop
  endfacet
  facet normal 0.000000e+000 0.000000e+000 1.000000e+000
    outer loop
      vertex   -9.344107e+000 6.631108e+000 3.000000e+001
      vertex   -1.790561e+001 6.441664e+000 3.000000e+001
      vertex   -8.553214e+000 6.234719e+000 3.000000e+001
    endloop
  endfacet
  facet normal 0.000000e+000 0.000000e+000 1.000000e+000
    outer loop
      vertex   -9.344107e+000 6.631108e+000 3.000000e+001
      vertex   -1.709796e+001 6.802682e+000 3.000000e+001
      vertex   -1.790561e+001 6.441664e+000 3.000000e+001
    endloop
  endfacet
  facet normal 0.000000e+000 0.000000e+000 1.000000e+000
    outer loop
      vertex   -8.553214e+000 6.234719e+000 3.000000e+001
      vertex   -1.867820e+001 6.010678e+000 3.000000e+001
      vertex   -7.800450e+000 5.769981e+000 3.000000e+001
    endloop
  endfacet
  facet normal 0.000000e+000 0.000000e+000 1.000000e+000
    outer loop
      vertex   -8.553214e+000 6.234719e+000 3.000000e+001
      vertex   -1.790561e+001 6.441664e+000 3.000000e+001
      vertex   -1.867820e+001 6.010678e+000 3.000000e+001
    endloop
  endfacet
  facet normal 0.000000e+000 0.000000e+000 1.000000e+000
    outer loop
      vertex   -7.800450e+000 5.769981e+000 3.000000e+001
      vertex   -1.940967e+001 5.513098e+000 3.000000e+001
      vertex   -7.091705e+000 5.240532e+000 3.000000e+001
    endloop
  endfacet
  facet normal 0.000000e+000 0.000000e+000 1.000000e+000
    outer loop
      vertex   -7.800450e+000 5.769981e+000 3.000000e+001
      vertex   -1.867820e+001 6.010678e+000 3.000000e+001
      vertex   -1.940967e+001 5.513098e+000 3.000000e+001
    endloop
  endfacet
  facet normal 0.000000e+000 0.000000e+000 1.000000e+000
    outer loop
      vertex   -7.091705e+000 5.240532e+000 3.000000e+001
      vertex   -2.009430e+001 4.952817e+000 3.000000e+001
      vertex   -6.432526e+000 4.650516e+000 3.000000e+001
    endloop
  endfacet
  facet normal 0.000000e+000 0.000000e+000 1.000000e+000
    outer loop
      vertex   -7.091705e+000 5.240532e+000 3.000000e+001
      vertex   -1.940967e+001 5.513098e+000 3.000000e+001
      vertex   -2.009430e+001 4.952817e+000 3.000000e+001
    endloop
  endfacet
  facet normal 0.000000e+000 0.000000e+000 1.000000e+000
    outer loop
      vertex   -6.432526e+000 4.650516e+000 3.000000e+001
      vertex   -2.072673e+001 4.334221e+000 3.000000e+001
      vertex   -5.828072e+000 4.004551e+000 3.000000e+001
    endloop
  endfacet
  facet normal 0.000000e+000 0.000000e+000 1.000000e+000
    outer loop
      vertex   -6.432526e+000 4.650516e+000 3.000000e+001
      vertex   -2.009430e+001 4.952817e+000 3.000000e+001
      vertex   -2.072673e+001 4.334221e+000 3.000000e+001
    endloop
  endfacet
  facet normal -0.000000e+000 0.000000e+000 1.000000e+000
    outer loop
      vertex   -2.072673e+001 4.334221e+000 3.000000e+001
      vertex   -2.130202e+001 3.662151e+000 3.000000e+001
      vertex   -5.828072e+000 4.004551e+000 3.000000e+001
    endloop
  endfacet
  facet normal 0.000000e+000 0.000000e+000 1.000000e+000
    outer loop
      vertex   -5.828072e+000 4.004551e+000 3.000000e+001
      vertex   -2.130202e+001 3.662151e+000 3.000000e+001
      vertex   -5.283074e+000 3.307692e+000 3.000000e+001
    endloop
  endfacet
  facet normal 0.000000e+000 0.000000e+000 1.000000e+000
    outer loop
      vertex   -5.283074e+000 3.307692e+000 3.000000e+001
      vertex   -2.130202e+001 3.662151e+000 3.000000e+001
      vertex   -2.181566e+001 2.941867e+000 3.000000e+001
    endloop
  endfacet
  facet normal 0.000000e+000 0.000000e+000 1.000000e+000
    outer loop
      vertex   -4.801797e+000 2.565393e+000 3.000000e+001
      vertex   -2.181566e+001 2.941867e+000 3.000000e+001
      vertex   -2.226363e+001 2.179006e+000 3.000000e+001
    endloop
  endfacet
  facet normal 0.000000e+000 0.000000e+000 1.000000e+000
    outer loop
      vertex   -4.388008e+000 1.783463e+000 3.000000e+001
      vertex   -2.226363e+001 2.179006e+000 3.000000e+001
      vertex   -2.264243e+001 1.379538e+000 3.000000e+001
    endloop
  endfacet
  facet normal 0.000000e+000 0.000000e+000 1.000000e+000
    outer loop
      vertex   -4.044945e+000 9.680221e-001 3.000000e+001
      vertex   -2.264243e+001 1.379538e+000 3.000000e+001
      vertex   -2.294909e+001 5.497206e-001 3.000000e+001
    endloop
  endfacet
  facet normal 0.000000e+000 0.000000e+000 1.000000e+000
    outer loop
      vertex   -3.775294e+000 1.254524e-001 3.000000e+001
      vertex   -2.294909e+001 5.497206e-001 3.000000e+001
      vertex   -2.318121e+001 -3.039520e-001 3.000000e+001
    endloop
  endfacet
  facet normal 0.000000e+000 0.000000e+000 1.000000e+000
    outer loop
      vertex   -3.581164e+000 -7.376520e-001 3.000000e+001
      vertex   -2.318121e+001 -3.039520e-001 3.000000e+001
      vertex   -2.333697e+001 -1.174799e+000 3.000000e+001
    endloop
  endfacet
  facet normal 0.000000e+000 0.000000e+000 1.000000e+000
    outer loop
      vertex   -3.464075e+000 -1.614536e+000 3.000000e+001
      vertex   -2.333697e+001 -1.174799e+000 3.000000e+001
      vertex   -2.341516e+001 -2.056004e+000 3.000000e+001
    endloop
  endfacet
  facet normal 0.000000e+000 0.000000e+000 1.000000e+000
    outer loop
      vertex   -3.424943e+000 -2.498337e+000 3.000000e+001
      vertex   -2.341516e+001 -2.056004e+000 3.000000e+001
      vertex   -2.342494e+001 -2.498337e+000 3.000000e+001
    endloop
  endfacet
  facet normal 0.000000e+000 0.000000e+000 1.000000e+000
    outer loop
      vertex   -3.464075e+000 -3.382138e+000 3.000000e+001
      vertex   -2.342494e+001 -2.498337e+000 3.000000e+001
      vertex   -2.341516e+001 -2.940671e+000 3.000000e+001
    endloop
  endfacet
  facet normal 0.000000e+000 -0.000000e+000 1.000000e+000
    outer loop
      vertex   -2.333697e+001 -3.821876e+000 3.000000e+001
      vertex   -3.464075e+000 -3.382138e+000 3.000000e+001
      vertex   -2.341516e+001 -2.940671e+000 3.000000e+001
    endloop
  endfacet
  facet normal -0.000000e+000 0.000000e+000 1.000000e+000
    outer loop
      vertex   -2.333697e+001 -3.821876e+000 3.000000e+001
      vertex   -3.581164e+000 -4.259022e+000 3.000000e+001
      vertex   -3.464075e+000 -3.382138e+000 3.000000e+001
    endloop
  endfacet
  facet normal -0.000000e+000 0.000000e+000 1.000000e+000
    outer loop
      vertex   -2.333697e+001 -3.821876e+000 3.000000e+001
      vertex   -2.318121e+001 -4.692722e+000 3.000000e+001
      vertex   -3.581164e+000 -4.259022e+000 3.000000e+001
    endloop
  endfacet
  facet normal 0.000000e+000 0.000000e+000 1.000000e+000
    outer loop
      vertex   -3.581164e+000 -4.259022e+000 3.000000e+001
      vertex   -2.318121e+001 -4.692722e+000 3.000000e+001
      vertex   -3.775294e+000 -5.122127e+000 3.000000e+001
    endloop
  endfacet
  facet normal 0.000000e+000 0.000000e+000 1.000000e+000
    outer loop
      vertex   -3.775294e+000 -5.122127e+000 3.000000e+001
      vertex   -2.318121e+001 -4.692722e+000 3.000000e+001
      vertex   -2.294909e+001 -5.546395e+000 3.000000e+001
    endloop
  endfacet
  facet normal 0.000000e+000 0.000000e+000 1.000000e+000
    outer loop
      vertex   -4.044945e+000 -5.964696e+000 3.000000e+001
      vertex   -2.294909e+001 -5.546395e+000 3.000000e+001
      vertex   -2.264243e+001 -6.376212e+000 3.000000e+001
    endloop
  endfacet
  facet normal 0.000000e+000 0.000000e+000 1.000000e+000
    outer loop
      vertex   -4.388008e+000 -6.780137e+000 3.000000e+001
      vertex   -2.264243e+001 -6.376212e+000 3.000000e+001
      vertex   -2.226363e+001 -7.175680e+000 3.000000e+001
    endloop
  endfacet
  facet normal 0.000000e+000 0.000000e+000 1.000000e+000
    outer loop
      vertex   -4.801797e+000 -7.562067e+000 3.000000e+001
      vertex   -2.226363e+001 -7.175680e+000 3.000000e+001
      vertex   -2.181566e+001 -7.938541e+000 3.000000e+001
    endloop
  endfacet
  facet normal 0.000000e+000 0.000000e+000 1.000000e+000
    outer loop
      vertex   -5.283074e+000 -8.304366e+000 3.000000e+001
      vertex   -2.181566e+001 -7.938541e+000 3.000000e+001
      vertex   -2.130202e+001 -8.658825e+000 3.000000e+001
    endloop
  endfacet
  facet normal 0.000000e+000 0.000000e+000 1.000000e+000
    outer loop
      vertex   -5.828072e+000 -9.001225e+000 3.000000e+001
      vertex   -2.130202e+001 -8.658825e+000 3.000000e+001
      vertex   -2.072673e+001 -9.330895e+000 3.000000e+001
    endloop
  endfacet
  facet normal 0.000000e+000 0.000000e+000 1.000000e+000
    outer loop
      vertex   -6.432526e+000 -9.647190e+000 3.000000e+001
      vertex   -2.072673e+001 -9.330895e+000 3.000000e+001
      vertex   -2.009430e+001 -9.949491e+000 3.000000e+001
    endloop
  endfacet
  facet normal 0.000000e+000 0.000000e+000 1.000000e+000
    outer loop
      vertex   -7.091705e+000 -1.023721e+001 3.000000e+001
      vertex   -2.009430e+001 -9.949491e+000 3.000000e+001
      vertex   -1.940967e+001 -1.050977e+001 3.000000e+001
    endloop
  endfacet
  facet normal 0.000000e+000 0.000000e+000 1.000000e+000
    outer loop
      vertex   -7.800450e+000 -1.076665e+001 3.000000e+001
      vertex   -1.940967e+001 -1.050977e+001 3.000000e+001
      vertex   -1.867820e+001 -1.100735e+001 3.000000e+001
    endloop
  endfacet
  facet normal 0.000000e+000 0.000000e+000 1.000000e+000
    outer loop
      vertex   -8.553214e+000 -1.123139e+001 3.000000e+001
      vertex   -1.867820e+001 -1.100735e+001 3.000000e+001
      vertex   -1.790561e+001 -1.143834e+001 3.000000e+001
    endloop
  endfacet
  facet normal 0.000000e+000 0.000000e+000 1.000000e+000
    outer loop
      vertex   -9.344107e+000 -1.162778e+001 3.000000e+001
      vertex   -1.790561e+001 -1.143834e+001 3.000000e+001
      vertex   -1.709796e+001 -1.179936e+001 3.000000e+001
    endloop
  endfacet
  facet normal 0.000000e+000 0.000000e+000 1.000000e+000
    outer loop
      vertex   -1.016694e+001 -1.195272e+001 3.000000e+001
      vertex   -1.709796e+001 -1.179936e+001 3.000000e+001
      vertex   -1.626156e+001 -1.208758e+001 3.000000e+001
    endloop
  endfacet
  facet normal 0.000000e+000 0.000000e+000 1.000000e+000
    outer loop
      vertex   -1.101527e+001 -1.220367e+001 3.000000e+001
      vertex   -1.626156e+001 -1.208758e+001 3.000000e+001
      vertex   -1.540296e+001 -1.230076e+001 3.000000e+001
    endloop
  endfacet
  facet normal 0.000000e+000 0.000000e+000 1.000000e+000
    outer loop
      vertex   -1.188245e+001 -1.237866e+001 3.000000e+001
      vertex   -1.540296e+001 -1.230076e+001 3.000000e+001
      vertex   -1.452888e+001 -1.243722e+001 3.000000e+001
    endloop
  endfacet
  facet normal 0.000000e+000 0.000000e+000 1.000000e+000
    outer loop
      vertex   -1.276171e+001 -1.247632e+001 3.000000e+001
      vertex   -1.452888e+001 -1.243722e+001 3.000000e+001
      vertex   -1.364616e+001 -1.249589e+001 3.000000e+001
    endloop
  endfacet
  facet normal 0.000000e+000 -0.000000e+000 1.000000e+000
    outer loop
      vertex   -1.276171e+001 -1.247632e+001 3.000000e+001
      vertex   -1.188245e+001 -1.237866e+001 3.000000e+001
      vertex   -1.452888e+001 -1.243722e+001 3.000000e+001
    endloop
  endfacet
  facet normal 0.000000e+000 -0.000000e+000 1.000000e+000
    outer loop
      vertex   -1.188245e+001 -1.237866e+001 3.000000e+001
      vertex   -1.101527e+001 -1.220367e+001 3.000000e+001
      vertex   -1.540296e+001 -1.230076e+001 3.000000e+001
    endloop
  endfacet
  facet normal 0.000000e+000 -0.000000e+000 1.000000e+000
    outer loop
      vertex   -1.101527e+001 -1.220367e+001 3.000000e+001
      vertex   -1.016694e+001 -1.195272e+001 3.000000e+001
      vertex   -1.626156e+001 -1.208758e+001 3.000000e+001
    endloop
  endfacet
  facet normal 0.000000e+000 -0.000000e+000 1.000000e+000
    outer loop
      vertex   -1.016694e+001 -1.195272e+001 3.000000e+001
      vertex   -9.344107e+000 -1.162778e+001 3.000000e+001
      vertex   -1.709796e+001 -1.179936e+001 3.000000e+001
    endloop
  endfacet
  facet normal 0.000000e+000 -0.000000e+000 1.000000e+000
    outer loop
      vertex   -9.344107e+000 -1.162778e+001 3.000000e+001
      vertex   -8.553214e+000 -1.123139e+001 3.000000e+001
      vertex   -1.790561e+001 -1.143834e+001 3.000000e+001
    endloop
  endfacet
  facet normal 0.000000e+000 -0.000000e+000 1.000000e+000
    outer loop
      vertex   -8.553214e+000 -1.123139e+001 3.000000e+001
      vertex   -7.800450e+000 -1.076665e+001 3.000000e+001
      vertex   -1.867820e+001 -1.100735e+001 3.000000e+001
    endloop
  endfacet
  facet normal 0.000000e+000 -0.000000e+000 1.000000e+000
    outer loop
      vertex   -7.800450e+000 -1.076665e+001 3.000000e+001
      vertex   -7.091705e+000 -1.023721e+001 3.000000e+001
      vertex   -1.940967e+001 -1.050977e+001 3.000000e+001
    endloop
  endfacet
  facet normal 0.000000e+000 -0.000000e+000 1.000000e+000
    outer loop
      vertex   -7.091705e+000 -1.023721e+001 3.000000e+001
      vertex   -6.432526e+000 -9.647190e+000 3.000000e+001
      vertex   -2.009430e+001 -9.949491e+000 3.000000e+001
    endloop
  endfacet
  facet normal 0.000000e+000 -0.000000e+000 1.000000e+000
    outer loop
      vertex   -6.432526e+000 -9.647190e+000 3.000000e+001
      vertex   -5.828072e+000 -9.001225e+000 3.000000e+001
      vertex   -2.072673e+001 -9.330895e+000 3.000000e+001
    endloop
  endfacet
  facet normal 0.000000e+000 -0.000000e+000 1.000000e+000
    outer loop
      vertex   -5.828072e+000 -9.001225e+000 3.000000e+001
      vertex   -5.283074e+000 -8.304366e+000 3.000000e+001
      vertex   -2.130202e+001 -8.658825e+000 3.000000e+001
    endloop
  endfacet
  facet normal 0.000000e+000 -0.000000e+000 1.000000e+000
    outer loop
      vertex   -5.283074e+000 -8.304366e+000 3.000000e+001
      vertex   -4.801797e+000 -7.562067e+000 3.000000e+001
      vertex   -2.181566e+001 -7.938541e+000 3.000000e+001
    endloop
  endfacet
  facet normal 0.000000e+000 -0.000000e+000 1.000000e+000
    outer loop
      vertex   -4.801797e+000 -7.562067e+000 3.000000e+001
      vertex   -4.388008e+000 -6.780137e+000 3.000000e+001
      vertex   -2.226363e+001 -7.175680e+000 3.000000e+001
    endloop
  endfacet
  facet normal 0.000000e+000 -0.000000e+000 1.000000e+000
    outer loop
      vertex   -4.388008e+000 -6.780137e+000 3.000000e+001
      vertex   -4.044945e+000 -5.964696e+000 3.000000e+001
      vertex   -2.264243e+001 -6.376212e+000 3.000000e+001
    endloop
  endfacet
  facet normal 0.000000e+000 -0.000000e+000 1.000000e+000
    outer loop
      vertex   -4.044945e+000 -5.964696e+000 3.000000e+001
      vertex   -3.775294e+000 -5.122127e+000 3.000000e+001
      vertex   -2.294909e+001 -5.546395e+000 3.000000e+001
    endloop
  endfacet
  facet normal 0.000000e+000 -0.000000e+000 1.000000e+000
    outer loop
      vertex   -3.464075e+000 -3.382138e+000 3.000000e+001
      vertex   -3.424943e+000 -2.498337e+000 3.000000e+001
      vertex   -2.342494e+001 -2.498337e+000 3.000000e+001
    endloop
  endfacet
  facet normal -0.000000e+000 -0.000000e+000 1.000000e+000
    outer loop
      vertex   -2.341516e+001 -2.056004e+000 3.000000e+001
      vertex   -3.424943e+000 -2.498337e+000 3.000000e+001
      vertex   -3.464075e+000 -1.614536e+000 3.000000e+001
    endloop
  endfacet
  facet normal -0.000000e+000 -0.000000e+000 1.000000e+000
    outer loop
      vertex   -2.333697e+001 -1.174799e+000 3.000000e+001
      vertex   -3.464075e+000 -1.614536e+000 3.000000e+001
      vertex   -3.581164e+000 -7.376520e-001 3.000000e+001
    endloop
  endfacet
  facet normal -0.000000e+000 -0.000000e+000 1.000000e+000
    outer loop
      vertex   -2.318121e+001 -3.039520e-001 3.000000e+001
      vertex   -3.581164e+000 -7.376520e-001 3.000000e+001
      vertex   -3.775294e+000 1.254524e-001 3.000000e+001
    endloop
  endfacet
  facet normal -0.000000e+000 -0.000000e+000 1.000000e+000
    outer loop
      vertex   -2.294909e+001 5.497206e-001 3.000000e+001
      vertex   -3.775294e+000 1.254524e-001 3.000000e+001
      vertex   -4.044945e+000 9.680221e-001 3.000000e+001
    endloop
  endfacet
  facet normal -0.000000e+000 -0.000000e+000 1.000000e+000
    outer loop
      vertex   -2.264243e+001 1.379538e+000 3.000000e+001
      vertex   -4.044945e+000 9.680221e-001 3.000000e+001
      vertex   -4.388008e+000 1.783463e+000 3.000000e+001
    endloop
  endfacet
  facet normal -0.000000e+000 -0.000000e+000 1.000000e+000
    outer loop
      vertex   -2.226363e+001 2.179006e+000 3.000000e+001
      vertex   -4.388008e+000 1.783463e+000 3.000000e+001
      vertex   -4.801797e+000 2.565393e+000 3.000000e+001
    endloop
  endfacet
  facet normal -0.000000e+000 -0.000000e+000 1.000000e+000
    outer loop
      vertex   -2.181566e+001 2.941867e+000 3.000000e+001
      vertex   -4.801797e+000 2.565393e+000 3.000000e+001
      vertex   -5.283074e+000 3.307692e+000 3.000000e+001
    endloop
  endfacet
  facet normal 0.000000e+000 0.000000e+000 -1.000000e+000
    outer loop
      vertex   -1.276171e+001 -1.247632e+001 0.000000e+000
      vertex   -1.452888e+001 -1.243722e+001 0.000000e+000
      vertex   -1.188245e+001 -1.237866e+001 0.000000e+000
    endloop
  endfacet
  facet normal -0.000000e+000 0.000000e+000 -1.000000e+000
    outer loop
      vertex   -1.276171e+001 -1.247632e+001 0.000000e+000
      vertex   -1.364616e+001 -1.249589e+001 0.000000e+000
      vertex   -1.452888e+001 -1.243722e+001 0.000000e+000
    endloop
  endfacet
  facet normal 0.000000e+000 0.000000e+000 -1.000000e+000
    outer loop
      vertex   -1.188245e+001 -1.237866e+001 0.000000e+000
      vertex   -1.540296e+001 -1.230076e+001 0.000000e+000
      vertex   -1.101527e+001 -1.220367e+001 0.000000e+000
    endloop
  endfacet
  facet normal -0.000000e+000 0.000000e+000 -1.000000e+000
    outer loop
      vertex   -1.188245e+001 -1.237866e+001 0.000000e+000
      vertex   -1.452888e+001 -1.243722e+001 0.000000e+000
      vertex   -1.540296e+001 -1.230076e+001 0.000000e+000
    endloop
  endfacet
  facet normal 0.000000e+000 0.000000e+000 -1.000000e+000
    outer loop
      vertex   -1.101527e+001 -1.220367e+001 0.000000e+000
      vertex   -1.626156e+001 -1.208758e+001 0.000000e+000
      vertex   -1.016694e+001 -1.195272e+001 0.000000e+000
    endloop
  endfacet
  facet normal -0.000000e+000 0.000000e+000 -1.000000e+000
    outer loop
      vertex   -1.101527e+001 -1.220367e+001 0.000000e+000
      vertex   -1.540296e+001 -1.230076e+001 0.000000e+000
      vertex   -1.626156e+001 -1.208758e+001 0.000000e+000
    endloop
  endfacet
  facet normal 0.000000e+000 0.000000e+000 -1.000000e+000
    outer loop
      vertex   -1.016694e+001 -1.195272e+001 0.000000e+000
      vertex   -1.709796e+001 -1.179936e+001 0.000000e+000
      vertex   -9.344107e+000 -1.162778e+001 0.000000e+000
    endloop
  endfacet
  facet normal -0.000000e+000 0.000000e+000 -1.000000e+000
    outer loop
      vertex   -1.016694e+001 -1.195272e+001 0.000000e+000
      vertex   -1.626156e+001 -1.208758e+001 0.000000e+000
      vertex   -1.709796e+001 -1.179936e+001 0.000000e+000
    endloop
  endfacet
  facet normal 0.000000e+000 0.000000e+000 -1.000000e+000
    outer loop
      vertex   -9.344107e+000 -1.162778e+001 0.000000e+000
      vertex   -1.790561e+001 -1.143834e+001 0.000000e+000
      vertex   -8.553214e+000 -1.123139e+001 0.000000e+000
    endloop
  endfacet
  facet normal -0.000000e+000 0.000000e+000 -1.000000e+000
    outer loop
      vertex   -9.344107e+000 -1.162778e+001 0.000000e+000
      vertex   -1.709796e+001 -1.179936e+001 0.000000e+000
      vertex   -1.790561e+001 -1.143834e+001 0.000000e+000
    endloop
  endfacet
  facet normal 0.000000e+000 0.000000e+000 -1.000000e+000
    outer loop
      vertex   -8.553214e+000 -1.123139e+001 0.000000e+000
      vertex   -1.867820e+001 -1.100735e+001 0.000000e+000
      vertex   -7.800450e+000 -1.076665e+001 0.000000e+000
    endloop
  endfacet
  facet normal -0.000000e+000 0.000000e+000 -1.000000e+000
    outer loop
      vertex   -8.553214e+000 -1.123139e+001 0.000000e+000
      vertex   -1.790561e+001 -1.143834e+001 0.000000e+000
      vertex   -1.867820e+001 -1.100735e+001 0.000000e+000
    endloop
  endfacet
  facet normal 0.000000e+000 0.000000e+000 -1.000000e+000
    outer loop
      vertex   -7.800450e+000 -1.076665e+001 0.000000e+000
      vertex   -1.940967e+001 -1.050977e+001 0.000000e+000
      vertex   -7.091705e+000 -1.023721e+001 0.000000e+000
    endloop
  endfacet
  facet normal -0.000000e+000 0.000000e+000 -1.000000e+000
    outer loop
      vertex   -7.800450e+000 -1.076665e+001 0.000000e+000
      vertex   -1.867820e+001 -1.100735e+001 0.000000e+000
      vertex   -1.940967e+001 -1.050977e+001 0.000000e+000
    endloop
  endfacet
  facet normal 0.000000e+000 0.000000e+000 -1.000000e+000
    outer loop
      vertex   -7.091705e+000 -1.023721e+001 0.000000e+000
      vertex   -2.009430e+001 -9.949491e+000 0.000000e+000
      vertex   -6.432526e+000 -9.647190e+000 0.000000e+000
    endloop
  endfacet
  facet normal -0.000000e+000 0.000000e+000 -1.000000e+000
    outer loop
      vertex   -7.091705e+000 -1.023721e+001 0.000000e+000
      vertex   -1.940967e+001 -1.050977e+001 0.000000e+000
      vertex   -2.009430e+001 -9.949491e+000 0.000000e+000
    endloop
  endfacet
  facet normal 0.000000e+000 0.000000e+000 -1.000000e+000
    outer loop
      vertex   -6.432526e+000 -9.647190e+000 0.000000e+000
      vertex   -2.072673e+001 -9.330895e+000 0.000000e+000
      vertex   -5.828072e+000 -9.001225e+000 0.000000e+000
    endloop
  endfacet
  facet normal -0.000000e+000 0.000000e+000 -1.000000e+000
    outer loop
      vertex   -6.432526e+000 -9.647190e+000 0.000000e+000
      vertex   -2.009430e+001 -9.949491e+000 0.000000e+000
      vertex   -2.072673e+001 -9.330895e+000 0.000000e+000
    endloop
  endfacet
  facet normal 0.000000e+000 0.000000e+000 -1.000000e+000
    outer loop
      vertex   -2.072673e+001 -9.330895e+000 0.000000e+000
      vertex   -2.130202e+001 -8.658825e+000 0.000000e+000
      vertex   -5.828072e+000 -9.001225e+000 0.000000e+000
    endloop
  endfacet
  facet normal 0.000000e+000 0.000000e+000 -1.000000e+000
    outer loop
      vertex   -5.828072e+000 -9.001225e+000 0.000000e+000
      vertex   -2.130202e+001 -8.658825e+000 0.000000e+000
      vertex   -5.283074e+000 -8.304366e+000 0.000000e+000
    endloop
  endfacet
  facet normal -0.000000e+000 0.000000e+000 -1.000000e+000
    outer loop
      vertex   -5.283074e+000 -8.304366e+000 0.000000e+000
      vertex   -2.130202e+001 -8.658825e+000 0.000000e+000
      vertex   -2.181566e+001 -7.938541e+000 0.000000e+000
    endloop
  endfacet
  facet normal -0.000000e+000 0.000000e+000 -1.000000e+000
    outer loop
      vertex   -4.801797e+000 -7.562067e+000 0.000000e+000
      vertex   -2.181566e+001 -7.938541e+000 0.000000e+000
      vertex   -2.226363e+001 -7.175680e+000 0.000000e+000
    endloop
  endfacet
  facet normal -0.000000e+000 0.000000e+000 -1.000000e+000
    outer loop
      vertex   -4.388008e+000 -6.780137e+000 0.000000e+000
      vertex   -2.226363e+001 -7.175680e+000 0.000000e+000
      vertex   -2.264243e+001 -6.376212e+000 0.000000e+000
    endloop
  endfacet
  facet normal -0.000000e+000 0.000000e+000 -1.000000e+000
    outer loop
      vertex   -4.044945e+000 -5.964696e+000 0.000000e+000
      vertex   -2.264243e+001 -6.376212e+000 0.000000e+000
      vertex   -2.294909e+001 -5.546395e+000 0.000000e+000
    endloop
  endfacet
  facet normal -0.000000e+000 0.000000e+000 -1.000000e+000
    outer loop
      vertex   -3.775294e+000 -5.122127e+000 0.000000e+000
      vertex   -2.294909e+001 -5.546395e+000 0.000000e+000
      vertex   -2.318121e+001 -4.692722e+000 0.000000e+000
    endloop
  endfacet
  facet normal -0.000000e+000 0.000000e+000 -1.000000e+000
    outer loop
      vertex   -3.581164e+000 -4.259022e+000 0.000000e+000
      vertex   -2.318121e+001 -4.692722e+000 0.000000e+000
      vertex   -2.333697e+001 -3.821876e+000 0.000000e+000
    endloop
  endfacet
  facet normal -0.000000e+000 0.000000e+000 -1.000000e+000
    outer loop
      vertex   -3.464075e+000 -3.382138e+000 0.000000e+000
      vertex   -2.333697e+001 -3.821876e+000 0.000000e+000
      vertex   -2.341516e+001 -2.940671e+000 0.000000e+000
    endloop
  endfacet
  facet normal -0.000000e+000 0.000000e+000 -1.000000e+000
    outer loop
      vertex   -3.424943e+000 -2.498337e+000 0.000000e+000
      vertex   -2.341516e+001 -2.940671e+000 0.000000e+000
      vertex   -2.342494e+001 -2.498337e+000 0.000000e+000
    endloop
  endfacet
  facet normal -0.000000e+000 -0.000000e+000 -1.000000e+000
    outer loop
      vertex   -2.341516e+001 -2.056004e+000 0.000000e+000
      vertex   -3.424943e+000 -2.498337e+000 0.000000e+000
      vertex   -2.342494e+001 -2.498337e+000 0.000000e+000
    endloop
  endfacet
  facet normal 0.000000e+000 0.000000e+000 -1.000000e+000
    outer loop
      vertex   -2.341516e+001 -2.056004e+000 0.000000e+000
      vertex   -3.464075e+000 -1.614536e+000 0.000000e+000
      vertex   -3.424943e+000 -2.498337e+000 0.000000e+000
    endloop
  endfacet
  facet normal 0.000000e+000 0.000000e+000 -1.000000e+000
    outer loop
      vertex   -2.341516e+001 -2.056004e+000 0.000000e+000
      vertex   -2.333697e+001 -1.174799e+000 0.000000e+000
      vertex   -3.464075e+000 -1.614536e+000 0.000000e+000
    endloop
  endfacet
  facet normal 0.000000e+000 0.000000e+000 -1.000000e+000
    outer loop
      vertex   -3.464075e+000 -1.614536e+000 0.000000e+000
      vertex   -2.333697e+001 -1.174799e+000 0.000000e+000
      vertex   -3.581164e+000 -7.376520e-001 0.000000e+000
    endloop
  endfacet
  facet normal -0.000000e+000 0.000000e+000 -1.000000e+000
    outer loop
      vertex   -3.581164e+000 -7.376520e-001 0.000000e+000
      vertex   -2.333697e+001 -1.174799e+000 0.000000e+000
      vertex   -2.318121e+001 -3.039520e-001 0.000000e+000
    endloop
  endfacet
  facet normal -0.000000e+000 0.000000e+000 -1.000000e+000
    outer loop
      vertex   -3.775294e+000 1.254524e-001 0.000000e+000
      vertex   -2.318121e+001 -3.039520e-001 0.000000e+000
      vertex   -2.294909e+001 5.497206e-001 0.000000e+000
    endloop
  endfacet
  facet normal -0.000000e+000 0.000000e+000 -1.000000e+000
    outer loop
      vertex   -4.044945e+000 9.680221e-001 0.000000e+000
      vertex   -2.294909e+001 5.497206e-001 0.000000e+000
      vertex   -2.264243e+001 1.379538e+000 0.000000e+000
    endloop
  endfacet
  facet normal -0.000000e+000 0.000000e+000 -1.000000e+000
    outer loop
      vertex   -4.388008e+000 1.783463e+000 0.000000e+000
      vertex   -2.264243e+001 1.379538e+000 0.000000e+000
      vertex   -2.226363e+001 2.179006e+000 0.000000e+000
    endloop
  endfacet
  facet normal -0.000000e+000 0.000000e+000 -1.000000e+000
    outer loop
      vertex   -4.801797e+000 2.565393e+000 0.000000e+000
      vertex   -2.226363e+001 2.179006e+000 0.000000e+000
      vertex   -2.181566e+001 2.941867e+000 0.000000e+000
    endloop
  endfacet
  facet normal -0.000000e+000 0.000000e+000 -1.000000e+000
    outer loop
      vertex   -5.283074e+000 3.307692e+000 0.000000e+000
      vertex   -2.181566e+001 2.941867e+000 0.000000e+000
      vertex   -2.130202e+001 3.662151e+000 0.000000e+000
    endloop
  endfacet
  facet normal -0.000000e+000 0.000000e+000 -1.000000e+000
    outer loop
      vertex   -5.828072e+000 4.004551e+000 0.000000e+000
      vertex   -2.130202e+001 3.662151e+000 0.000000e+000
      vertex   -2.072673e+001 4.334221e+000 0.000000e+000
    endloop
  endfacet
  facet normal -0.000000e+000 0.000000e+000 -1.000000e+000
    outer loop
      vertex   -6.432526e+000 4.650516e+000 0.000000e+000
      vertex   -2.072673e+001 4.334221e+000 0.000000e+000
      vertex   -2.009430e+001 4.952817e+000 0.000000e+000
    endloop
  endfacet
  facet normal -0.000000e+000 0.000000e+000 -1.000000e+000
    outer loop
      vertex   -7.091705e+000 5.240532e+000 0.000000e+000
      vertex   -2.009430e+001 4.952817e+000 0.000000e+000
      vertex   -1.940967e+001 5.513098e+000 0.000000e+000
    endloop
  endfacet
  facet normal -0.000000e+000 0.000000e+000 -1.000000e+000
    outer loop
      vertex   -7.800450e+000 5.769981e+000 0.000000e+000
      vertex   -1.940967e+001 5.513098e+000 0.000000e+000
      vertex   -1.867820e+001 6.010678e+000 0.000000e+000
    endloop
  endfacet
  facet normal -0.000000e+000 0.000000e+000 -1.000000e+000
    outer loop
      vertex   -8.553214e+000 6.234719e+000 0.000000e+000
      vertex   -1.867820e+001 6.010678e+000 0.000000e+000
      vertex   -1.790561e+001 6.441664e+000 0.000000e+000
    endloop
  endfacet
  facet normal -0.000000e+000 0.000000e+000 -1.000000e+000
    outer loop
      vertex   -9.344107e+000 6.631108e+000 0.000000e+000
      vertex   -1.790561e+001 6.441664e+000 0.000000e+000
      vertex   -1.709796e+001 6.802682e+000 0.000000e+000
    endloop
  endfacet
  facet normal -0.000000e+000 0.000000e+000 -1.000000e+000
    outer loop
      vertex   -1.016694e+001 6.956048e+000 0.000000e+000
      vertex   -1.709796e+001 6.802682e+000 0.000000e+000
      vertex   -1.626156e+001 7.090907e+000 0.000000e+000
    endloop
  endfacet
  facet normal -0.000000e+000 0.000000e+000 -1.000000e+000
    outer loop
      vertex   -1.101527e+001 7.206994e+000 0.000000e+000
      vertex   -1.626156e+001 7.090907e+000 0.000000e+000
      vertex   -1.540296e+001 7.304083e+000 0.000000e+000
    endloop
  endfacet
  facet normal -0.000000e+000 0.000000e+000 -1.000000e+000
    outer loop
      vertex   -1.188245e+001 7.381983e+000 0.000000e+000
      vertex   -1.540296e+001 7.304083e+000 0.000000e+000
      vertex   -1.452888e+001 7.440542e+000 0.000000e+000
    endloop
  endfacet
  facet normal -0.000000e+000 0.000000e+000 -1.000000e+000
    outer loop
      vertex   -1.276171e+001 7.479645e+000 0.000000e+000
      vertex   -1.452888e+001 7.440542e+000 0.000000e+000
      vertex   -1.364616e+001 7.499216e+000 0.000000e+000
    endloop
  endfacet
  facet normal -0.000000e+000 -0.000000e+000 -1.000000e+000
    outer loop
      vertex   -1.276171e+001 7.479645e+000 0.000000e+000
      vertex   -1.188245e+001 7.381983e+000 0.000000e+000
      vertex   -1.452888e+001 7.440542e+000 0.000000e+000
    endloop
  endfacet
  facet normal -0.000000e+000 -0.000000e+000 -1.000000e+000
    outer loop
      vertex   -1.188245e+001 7.381983e+000 0.000000e+000
      vertex   -1.101527e+001 7.206994e+000 0.000000e+000
      vertex   -1.540296e+001 7.304083e+000 0.000000e+000
    endloop
  endfacet
  facet normal -0.000000e+000 -0.000000e+000 -1.000000e+000
    outer loop
      vertex   -1.101527e+001 7.206994e+000 0.000000e+000
      vertex   -1.016694e+001 6.956048e+000 0.000000e+000
      vertex   -1.626156e+001 7.090907e+000 0.000000e+000
    endloop
  endfacet
  facet normal -0.000000e+000 -0.000000e+000 -1.000000e+000
    outer loop
      vertex   -1.016694e+001 6.956048e+000 0.000000e+000
      vertex   -9.344107e+000 6.631108e+000 0.000000e+000
      vertex   -1.709796e+001 6.802682e+000 0.000000e+000
    endloop
  endfacet
  facet normal -0.000000e+000 -0.000000e+000 -1.000000e+000
    outer loop
      vertex   -9.344107e+000 6.631108e+000 0.000000e+000
      vertex   -8.553214e+000 6.234719e+000 0.000000e+000
      vertex   -1.790561e+001 6.441664e+000 0.000000e+000
    endloop
  endfacet
  facet normal -0.000000e+000 -0.000000e+000 -1.000000e+000
    outer loop
      vertex   -8.553214e+000 6.234719e+000 0.000000e+000
      vertex   -7.800450e+000 5.769981e+000 0.000000e+000
      vertex   -1.867820e+001 6.010678e+000 0.000000e+000
    endloop
  endfacet
  facet normal -0.000000e+000 -0.000000e+000 -1.000000e+000
    outer loop
      vertex   -7.800450e+000 5.769981e+000 0.000000e+000
      vertex   -7.091705e+000 5.240532e+000 0.000000e+000
      vertex   -1.940967e+001 5.513098e+000 0.000000e+000
    endloop
  endfacet
  facet normal -0.000000e+000 -0.000000e+000 -1.000000e+000
    outer loop
      vertex   -7.091705e+000 5.240532e+000 0.000000e+000
      vertex   -6.432526e+000 4.650516e+000 0.000000e+000
      vertex   -2.009430e+001 4.952817e+000 0.000000e+000
    endloop
  endfacet
  facet normal -0.000000e+000 -0.000000e+000 -1.000000e+000
    outer loop
      vertex   -6.432526e+000 4.650516e+000 0.000000e+000
      vertex   -5.828072e+000 4.004551e+000 0.000000e+000
      vertex   -2.072673e+001 4.334221e+000 0.000000e+000
    endloop
  endfacet
  facet normal -0.000000e+000 -0.000000e+000 -1.000000e+000
    outer loop
      vertex   -5.828072e+000 4.004551e+000 0.000000e+000
      vertex   -5.283074e+000 3.307692e+000 0.000000e+000
      vertex   -2.130202e+001 3.662151e+000 0.000000e+000
    endloop
  endfacet
  facet normal -0.000000e+000 -0.000000e+000 -1.000000e+000
    outer loop
      vertex   -5.283074e+000 3.307692e+000 0.000000e+000
      vertex   -4.801797e+000 2.565393e+000 0.000000e+000
      vertex   -2.181566e+001 2.941867e+000 0.000000e+000
    endloop
  endfacet
  facet normal -0.000000e+000 -0.000000e+000 -1.000000e+000
    outer loop
      vertex   -4.801797e+000 2.565393e+000 0.000000e+000
      vertex   -4.388008e+000 1.783463e+000 0.000000e+000
      vertex   -2.226363e+001 2.179006e+000 0.000000e+000
    endloop
  endfacet
  facet normal -0.000000e+000 -0.000000e+000 -1.000000e+000
    outer loop
      vertex   -4.388008e+000 1.783463e+000 0.000000e+000
      vertex   -4.044945e+000 9.680221e-001 0.000000e+000
      vertex   -2.264243e+001 1.379538e+000 0.000000e+000
    endloop
  endfacet
  facet normal -0.000000e+000 -0.000000e+000 -1.000000e+000
    outer loop
      vertex   -4.044945e+000 9.680221e-001 0.000000e+000
      vertex   -3.775294e+000 1.254524e-001 0.000000e+000
      vertex   -2.294909e+001 5.497206e-001 0.000000e+000
    endloop
  endfacet
  facet normal -0.000000e+000 -0.000000e+000 -1.000000e+000
    outer loop
      vertex   -3.775294e+000 1.254524e-001 0.000000e+000
      vertex   -3.581164e+000 -7.376520e-001 0.000000e+000
      vertex   -2.318121e+001 -3.039520e-001 0.000000e+000
    endloop
  endfacet
  facet normal 0.000000e+000 0.000000e+000 -1.000000e+000
    outer loop
      vertex   -5.283074e+000 -8.304366e+000 0.000000e+000
      vertex   -2.181566e+001 -7.938541e+000 0.000000e+000
      vertex   -4.801797e+000 -7.562067e+000 0.000000e+000
    endloop
  endfacet
  facet normal 0.000000e+000 0.000000e+000 -1.000000e+000
    outer loop
      vertex   -4.801797e+000 -7.562067e+000 0.000000e+000
      vertex   -2.226363e+001 -7.175680e+000 0.000000e+000
      vertex   -4.388008e+000 -6.780137e+000 0.000000e+000
    endloop
  endfacet
  facet normal 0.000000e+000 0.000000e+000 -1.000000e+000
    outer loop
      vertex   -4.388008e+000 -6.780137e+000 0.000000e+000
      vertex   -2.264243e+001 -6.376212e+000 0.000000e+000
      vertex   -4.044945e+000 -5.964696e+000 0.000000e+000
    endloop
  endfacet
  facet normal 0.000000e+000 0.000000e+000 -1.000000e+000
    outer loop
      vertex   -4.044945e+000 -5.964696e+000 0.000000e+000
      vertex   -2.294909e+001 -5.546395e+000 0.000000e+000
      vertex   -3.775294e+000 -5.122127e+000 0.000000e+000
    endloop
  endfacet
  facet normal 0.000000e+000 0.000000e+000 -1.000000e+000
    outer loop
      vertex   -3.775294e+000 -5.122127e+000 0.000000e+000
      vertex   -2.318121e+001 -4.692722e+000 0.000000e+000
      vertex   -3.581164e+000 -4.259022e+000 0.000000e+000
    endloop
  endfacet
  facet normal 0.000000e+000 0.000000e+000 -1.000000e+000
    outer loop
      vertex   -3.581164e+000 -4.259022e+000 0.000000e+000
      vertex   -2.333697e+001 -3.821876e+000 0.000000e+000
      vertex   -3.464075e+000 -3.382138e+000 0.000000e+000
    endloop
  endfacet
  facet normal 0.000000e+000 0.000000e+000 -1.000000e+000
    outer loop
      vertex   -3.464075e+000 -3.382138e+000 0.000000e+000
      vertex   -2.341516e+001 -2.940671e+000 0.000000e+000
      vertex   -3.424943e+000 -2.498337e+000 0.000000e+000
    endloop
  endfacet
endsolid
