solid prism
  facet normal -7.105427e-016 1.000000e+000 0.000000e+000
    outer loop
      vertex   -3.190313e+001 -8.413729e+000 3.000000e+001
      vertex   -1.190313e+001 -8.413729e+000 3.000000e+001
      vertex   -3.190313e+001 -8.413729e+000 0.000000e+000
    endloop
  endfacet
  facet normal -7.105427e-016 1.000000e+000 0.000000e+000
    outer loop
      vertex   -3.190313e+001 -8.413729e+000 0.000000e+000
      vertex   -1.190313e+001 -8.413729e+000 3.000000e+001
      vertex   -1.190313e+001 -8.413729e+000 0.000000e+000
    endloop
  endfacet
  facet normal 1.000000e+000 7.105427e-016 0.000000e+000
    outer loop
      vertex   -1.190313e+001 -8.413729e+000 3.000000e+001
      vertex   -1.190313e+001 -2.841373e+001 3.000000e+001
      vertex   -1.190313e+001 -8.413729e+000 0.000000e+000
    endloop
  endfacet
  facet normal 1.000000e+000 7.105427e-016 0.000000e+000
    outer loop
      vertex   -1.190313e+001 -8.413729e+000 0.000000e+000
      vertex   -1.190313e+001 -2.841373e+001 3.000000e+001
      vertex   -1.190313e+001 -2.841373e+001 0.000000e+000
    endloop
  endfacet
  facet normal 3.552714e-016 -1.000000e+000 0.000000e+000
    outer loop
      vertex   -1.190313e+001 -2.841373e+001 3.000000e+001
      vertex   -3.190313e+001 -2.841373e+001 3.000000e+001
      vertex   -1.190313e+001 -2.841373e+001 0.000000e+000
    endloop
  endfacet
  facet normal 3.552714e-016 -1.000000e+000 0.000000e+000
    outer loop
      vertex   -1.190313e+001 -2.841373e+001 0.000000e+000
      vertex   -3.190313e+001 -2.841373e+001 3.000000e+001
      vertex   -3.190313e+001 -2.841373e+001 0.000000e+000
    endloop
  endfacet
  facet normal -1.000000e+000 -1.776357e-016 0.000000e+000
    outer loop
      vertex   -3.190313e+001 -2.841373e+001 3.000000e+001
      vertex   -3.190313e+001 -8.413729e+000 3.000000e+001
      vertex   -3.190313e+001 -2.841373e+001 0.000000e+000
    endloop
  endfacet
  facet normal -1.000000e+000 -1.776357e-016 -0.000000e+000
    outer loop
      vertex   -3.190313e+001 -2.841373e+001 0.000000e+000
      vertex   -3.190313e+001 -8.413729e+000 3.000000e+001
      vertex   -3.190313e+001 -8.413729e+000 0.000000e+000
    endloop
  endfacet
  facet normal 0.000000e+000 0.000000e+000 1.000000e+000
    outer loop
      vertex   -1.190313e+001 -8.413729e+000 3.000000e+001
      vertex   -3.190313e+001 -8.413729e+000 3.000000e+001
      vertex   -1.190313e+001 -2.841373e+001 3.000000e+001
    endloop
  endfacet
  facet normal 0.000000e+000 0.000000e+000 1.000000e+000
    outer loop
      vertex   -1.190313e+001 -2.841373e+001 3.000000e+001
      vertex   -3.190313e+001 -8.413729e+000 3.000000e+001
      vertex   -3.190313e+001 -2.841373e+001 3.000000e+001
    endloop
  endfacet
  facet normal 0.000000e+000 -0.000000e+000 -1.000000e+000
    outer loop
      vertex   -3.190313e+001 -8.413729e+000 0.000000e+000
      vertex   -1.190313e+001 -8.413729e+000 0.000000e+000
      vertex   -3.190313e+001 -2.841373e+001 0.000000e+000
    endloop
  endfacet
  facet normal 0.000000e+000 0.000000e+000 -1.000000e+000
    outer loop
      vertex   -3.190313e+001 -2.841373e+001 0.000000e+000
      vertex   -1.190313e+001 -8.413729e+000 0.000000e+000
      vertex   -1.190313e+001 -2.841373e+001 0.000000e+000
    endloop
  endfacet
endsolid
